<?xml version="1.0" standalone="no"?>
<!DOCTYPE svg PUBLIC "-//W3C//DTD SVG 20010904//EN"
 "http://www.w3.org/TR/2001/REC-SVG-20010904/DTD/svg10.dtd">
<svg version="1.0" xmlns="http://www.w3.org/2000/svg"
 width="700.000000pt" height="700.000000pt" viewBox="0 0 700.000000 700.000000"
 preserveAspectRatio="xMidYMid meet">
<metadata>
Created by potrace 1.11, written by Peter Selinger 2001-2013
</metadata>
<g transform="translate(0.000000,700.000000) scale(0.100000,-0.100000)"
fill="#000000" stroke="none">
<path d="M3388 6995 c-2 -1 -46 -5 -98 -9 -52 -3 -106 -8 -120 -11 -14 -3 -45
-8 -70 -11 -209 -27 -455 -99 -714 -209 l-39 -16 499 -500 c965 -966 2004
-2013 2004 -2020 0 -4 -66 -74 -147 -156 -82 -83 -356 -361 -610 -619 -253
-258 -493 -502 -533 -543 l-72 -74 -684 684 c-376 376 -684 686 -684 689 0 7
36 44 379 383 171 170 311 312 311 315 0 4 -284 293 -630 642 l-630 635 -43
-46 c-93 -102 -115 -127 -178 -209 -234 -305 -384 -614 -484 -995 -19 -71 -36
-148 -40 -170 -3 -22 -7 -47 -10 -55 -2 -8 -6 -37 -10 -65 -3 -27 -8 -68 -10
-90 -27 -233 -21 -505 17 -735 5 -36 12 -74 13 -85 25 -167 176 -624 204 -618
6 2 8 -3 5 -10 -14 -39 227 -439 356 -591 97 -115 191 -214 271 -287 126 -114
186 -174 239 -238 68 -81 78 -93 108 -127 15 -17 46 -53 68 -80 128 -151 303
-357 353 -414 31 -36 133 -155 226 -265 94 -110 180 -211 191 -225 66 -76 235
-274 275 -321 307 -361 424 -496 440 -508 19 -14 20 -11 14 135 -3 82 -8 169
-10 194 -2 25 -7 110 -10 190 -4 80 -8 179 -10 220 -10 185 -16 312 -20 395
-2 50 -7 138 -11 197 l-6 108 28 1 c143 2 281 12 364 24 14 2 45 7 70 10 112
16 279 56 425 102 189 60 502 208 611 290 17 13 34 23 38 23 4 0 67 44 139 99
381 285 681 661 874 1096 96 216 184 529 209 745 3 30 9 64 11 75 10 38 12
500 2 570 -5 39 -11 90 -14 115 -47 393 -243 878 -493 1220 -175 238 -418 483
-617 620 -231 159 -392 247 -601 330 -74 30 -304 105 -349 115 -11 2 -63 13
-115 24 -52 11 -117 23 -145 26 -27 3 -61 8 -75 10 -72 13 -451 29 -462 20z"/>
</g>
</svg>
