<?xml version="1.0" standalone="no"?>
<!DOCTYPE svg PUBLIC "-//W3C//DTD SVG 20010904//EN"
 "http://www.w3.org/TR/2001/REC-SVG-20010904/DTD/svg10.dtd">
<svg version="1.0" xmlns="http://www.w3.org/2000/svg"
 width="700.000000pt" height="700.000000pt" viewBox="0 0 700.000000 700.000000"
 preserveAspectRatio="xMidYMid meet">
<metadata>
Created by potrace 1.11, written by Peter Selinger 2001-2013
</metadata>
<g transform="translate(0.000000,700.000000) scale(0.100000,-0.100000)"
fill="#000000" stroke="none">
<path d="M2061 6364 c-153 -32 -267 -124 -341 -277 -23 -48 -43 -93 -44 -100
-4 -15 -14 -42 -31 -82 -7 -16 -31 -75 -53 -130 -96 -244 -299 -667 -427 -890
-136 -238 -161 -266 -367 -413 -75 -53 -161 -120 -190 -147 -29 -28 -93 -86
-143 -130 -126 -112 -222 -211 -252 -259 -60 -94 -95 -181 -112 -276 -8 -47
-7 -245 3 -400 5 -69 9 -152 11 -185 12 -234 16 -307 20 -355 3 -30 7 -111 11
-180 13 -291 24 -450 35 -515 24 -137 134 -293 254 -359 62 -34 805 -363 900
-399 84 -31 234 -73 292 -82 23 -3 57 -8 75 -11 18 -2 71 -7 118 -10 116 -8
1801 -8 1872 0 82 9 195 54 237 93 144 132 200 256 188 412 -7 88 -28 152 -72
218 -20 30 -34 58 -30 61 3 3 18 8 33 9 45 6 144 45 192 76 92 61 167 162 200
269 37 121 7 296 -66 395 -13 17 -24 35 -24 40 0 4 505 8 1122 7 618 -1 1138
3 1158 8 162 40 277 118 346 235 23 41 24 46 24 256 l0 215 -36 53 c-41 62
-112 129 -169 160 -56 30 -143 59 -177 59 -15 0 -28 4 -28 9 0 5 15 32 34 60
55 81 78 154 82 257 6 147 -42 263 -153 372 -75 73 -145 107 -283 137 -8 2
-862 4 -1898 4 -1876 1 -1883 1 -1877 21 3 11 8 30 10 42 3 13 16 77 29 143
14 66 27 138 30 159 4 21 8 48 11 60 2 12 7 53 10 91 4 39 9 87 11 108 11 111
6 376 -11 557 -2 19 -6 73 -10 120 -12 162 -21 211 -52 279 -79 167 -268 256
-462 215z"/>
</g>
</svg>
