<svg xmlns="http://www.w3.org/2000/svg" xmlns:xlink="http://www.w3.org/1999/xlink" width="120" height="120" viewBox="0 0 120 120">
  <defs>
    <linearGradient id="app-icon-b" x1="50%" x2="50%" y1="0%" y2="100%">
      <stop offset="0%" stop-color="#F9F9F9"/>
      <stop offset="100%" stop-color="#E8E6E6"/>
    </linearGradient>
    <path id="app-icon-a" d="M91.40625,2.04546525e-15 C108.75,2.04546525e-15 120,11.25 120,28.59375 L120,91.40625 C120,108.75 108.75,120 91.40625,120 L28.59375,120 C11.25,120 0,108.75 0,91.40625 L0,28.59375 C0,11.25 11.25,2.04546526e-15 28.59375,2.04546526e-15 L91.40625,2.04546525e-15 Z"/>
    <filter id="app-icon-c" width="105.8%" height="105.8%" x="-2.9%" y="-2.9%" filterUnits="objectBoundingBox">
      <feGaussianBlur in="SourceAlpha" result="shadowBlurInner1" stdDeviation="3"/>
      <feOffset dy="1" in="shadowBlurInner1" result="shadowOffsetInner1"/>
      <feComposite in="shadowOffsetInner1" in2="SourceAlpha" k2="-1" k3="1" operator="arithmetic" result="shadowInnerInner1"/>
      <feColorMatrix in="shadowInnerInner1" values="0 0 0 0 0   0 0 0 0 0   0 0 0 0 0  0 0 0 0.2 0"/>
    </filter>
    <linearGradient id="app-icon-e" x1="100%" x2="0%" y1="50%" y2="50%">
      <stop offset="0%" stop-color="#45CCB0"/>
      <stop offset="63.629%" stop-color="#B1E1A4"/>
      <stop offset="100%" stop-color="#EFDBCC"/>
    </linearGradient>
    <path id="app-icon-f" d="M38.5234616,34.406015 L80.6691729,34.406015 C83.0610227,34.406015 85,36.3449924 85,38.7368421 L85,38.7368421 C85,41.1286918 83.0610227,43.0676692 80.6691729,43.0676692 L38.5234616,43.0676692 C36.1316119,43.0676692 34.1926346,41.1286918 34.1926346,38.7368421 L34.1926346,38.7368421 C34.1926346,36.3449924 36.1316119,34.406015 38.5234616,34.406015 Z"/>
    <linearGradient id="app-icon-g" x1="0%" y1="50%" y2="50%">
      <stop offset="0%" stop-color="#FD9983"/>
      <stop offset="37.407%" stop-color="#FC8A7B"/>
      <stop offset="100%" stop-color="#F42248"/>
    </linearGradient>
    <path id="app-icon-h" d="M39.2458412,23.5789474 L76.3348953,23.5789474 C78.7267451,23.5789474 80.6657224,25.5179247 80.6657224,27.9097744 L80.6657224,27.9097744 C80.6657224,30.3016242 78.7267451,32.2406015 76.3348953,32.2406015 L39.2458412,32.2406015 C36.8539915,32.2406015 34.9150142,30.3016242 34.9150142,27.9097744 L34.9150142,27.9097744 C34.9150142,25.5179247 36.8539915,23.5789474 39.2458412,23.5789474 Z"/>
    <linearGradient id="app-icon-i" x1="96.86%" x2="-20.795%" y1="61.933%" y2="61.605%">
      <stop offset="0%" stop-color="#F6F6F6"/>
      <stop offset="58.445%" stop-color="#FBFAF9"/>
      <stop offset="100%" stop-color="#DBDBDB"/>
    </linearGradient>
    <path id="app-icon-j" d="M43.101983,63.7593985 L21.4887845,63.7593985 C18.7523132,63.7593985 16.0471375,63.1773604 13.5528135,62.051917 L3.90987389,57.7010054 C2.26867305,56.9604926 1.17646628,55.3676125 1.07720305,53.5698233 L0.0665598141,35.2656431 C-0.0520029007,33.1183145 0.790739424,31.0295146 2.36625565,29.5656751 C4.16905041,27.8906672 5.54743734,26.6168958 6.50141643,25.7443609 C8.42242581,23.9873541 10.4852039,23.5682389 12.5212465,20.2105263 C15.2637328,15.6877914 17.9978617,9.80819618 20.723633,2.57174072 L20.7236593,2.57175061 C21.3065054,1.02439415 22.7870222,5.18696197e-13 24.4405099,5.1159077e-13 C26.0060547,5.1159077e-13 27.3105908,1.19933517 27.4419126,2.75936247 L27.8431056,7.52530466 C28.1415372,11.0705002 27.9154308,14.6403273 27.1720861,18.1195386 L26.379647,21.828535 C26.2126501,22.6101608 26.7109053,23.3791715 27.4925312,23.5461684 C27.592143,23.5674508 27.6937233,23.5781571 27.7955833,23.5781095 L48.8810198,23.5682389 C49.152205,23.5689926 49.4128054,23.6145031 49.6558477,23.6977579 C51.5594357,24.1534586 52.9745042,25.8662153 52.9745042,27.909479 C52.9745042,30.3011982 51.0356327,32.2400698 48.6439135,32.2400698 L48.4909996,32.2400698 L47.4300251,34.4059559 L49.3662931,34.4059559 C51.7580123,34.4059559 53.6968839,36.3448275 53.6968839,38.7365467 C53.6968839,41.1282659 51.7580123,43.0671374 49.3662931,43.0671374 L44.3215956,43.0671374 L43.6352787,45.233749 L47.6805359,45.233749 C49.9393818,45.233749 51.7705382,47.0649055 51.7705382,49.3237514 C51.7705382,51.5825973 49.9393818,53.4137538 47.6805359,53.4137538 L43.101983,53.4137538 L43.101983,55.5791706 L43.3462583,55.5791706 C45.6051042,55.5791706 47.4362606,57.410327 47.4362606,59.6691729 C47.4362606,61.9280189 45.6051042,63.7591753 43.3462583,63.7591753 L43.101983,63.7591753 Z"/>
  </defs>
  <g fill="none" fill-rule="evenodd">
    <mask id="app-icon-d" fill="#fff">
      <use xlink:href="#app-icon-a"/>
    </mask>
    <use fill="url(#app-icon-b)" xlink:href="#app-icon-a"/>
    <use fill="#000" filter="url(#app-icon-c)" xlink:href="#app-icon-a"/>
    <g mask="url(#app-icon-d)">
      <g transform="translate(18 26)">
        <g>
          <use fill="url(#app-icon-e)" xlink:href="#app-icon-f"/>
          <path stroke="#2B2C30" stroke-width="2" d="M38.5234616,33.406015 L80.6691729,33.406015 C83.6133074,33.406015 86,35.7927076 86,38.7368421 C86,41.6809766 83.6133074,44.0676692 80.6691729,44.0676692 L38.5234616,44.0676692 C35.5793271,44.0676692 33.1926346,41.6809766 33.1926346,38.7368421 C33.1926346,35.7927076 35.5793271,33.406015 38.5234616,33.406015 Z"/>
        </g>
        <g>
          <use fill="url(#app-icon-g)" xlink:href="#app-icon-h"/>
          <path stroke="#2B2C30" stroke-width="2" d="M39.2458412,22.5789474 L76.3348953,22.5789474 C79.2790298,22.5789474 81.6657224,24.9656399 81.6657224,27.9097744 C81.6657224,30.8539089 79.2790298,33.2406015 76.3348953,33.2406015 L39.2458412,33.2406015 C36.3017067,33.2406015 33.9150142,30.8539089 33.9150142,27.9097744 C33.9150142,24.9656399 36.3017067,22.5789474 39.2458412,22.5789474 Z"/>
        </g>
        <g fill-rule="nonzero" stroke-linecap="round" stroke-linejoin="bevel">
          <use fill="url(#app-icon-i)" fill-rule="evenodd" xlink:href="#app-icon-j"/>
          <path stroke="#2B2C30" stroke-width="2" d="M49.1251757,33.2186385 L49.033417,33.4059559 L49.3662931,33.4059559 C52.3102971,33.4059559 54.6968839,35.7925427 54.6968839,38.7365467 C54.6968839,41.6805507 52.3102971,44.0671374 49.3662931,44.0671374 L45.0537983,44.0671374 L45.0010208,44.233749 L47.6805359,44.233749 C50.4916666,44.233749 52.7705382,46.5126207 52.7705382,49.3237514 C52.7705382,52.1348821 50.4916666,54.4137538 47.6805359,54.4137538 L44.101983,54.4137538 L44.101983,54.6348881 C46.5547172,54.9999567 48.4362606,57.1148358 48.4362606,59.6691729 C48.4362606,62.2235101 46.5547172,64.3383892 44.101983,64.7034578 L44.101983,64.7593985 L21.4887845,64.7593985 C18.6104977,64.7593985 15.7651285,64.1471967 13.1415381,62.9634281 L3.49859845,58.6125165 C1.51718185,57.7184978 0.198564052,55.7954186 0.0787238562,53.6249531 L-0.931919367,35.3207732 C-1.06686721,32.876688 -0.10765959,30.4992203 1.68558981,28.8330811 C3.4901343,27.1564475 4.87023335,25.8810939 5.82651013,25.0064575 C6.38025628,24.4999864 6.85880391,24.1478686 7.78336026,23.5270282 C9.35908198,22.4689296 9.96153041,21.9827416 10.7719962,20.9766041 C11.0794168,20.5949626 11.3761765,20.1702633 11.6661689,19.6920262 C14.3731865,15.2277841 17.0822058,9.40218572 19.7878253,2.21922987 C20.5174501,0.282300805 22.3707238,-1 24.4405099,-1 C26.5258208,-1 28.2634672,0.597518434 28.4383882,2.67547998 L28.8395813,7.44142217 C29.1462614,11.0846054 28.9139055,14.7531011 28.150015,18.3284763 L27.357576,22.0374727 C27.3059722,22.2790033 27.4599383,22.5166357 27.7014689,22.5682395 C27.7322499,22.5748159 27.7636393,22.5781243 27.7951151,22.5781096 L48.8837993,22.5682427 C49.260283,22.5692892 49.6295789,22.6317152 49.8886601,22.7252363 C52.2684408,23.2949329 53.9745042,25.430151 53.9745042,27.909479 C53.9745042,30.6912679 51.8436743,32.9753748 49.1251757,33.2186385 Z"/>
        </g>
        <rect width="18.3" height="2.165" x="36.119" y="32.241" fill="#2B2C30" rx="1.083"/>
        <rect width="10.836" height="2.165" x="36.119" y="53.414" fill="#2B2C30" rx="1.083"/>
        <rect width="16.374" height="2.165" x="36.119" y="43.068" fill="#2B2C30" rx="1.083"/>
      </g>
    </g>
  </g>
</svg>
