<svg xmlns="http://www.w3.org/2000/svg" width="36" height="36" viewBox="0 0 36 36">
  <g fill="none" fill-rule="evenodd">
    <circle cx="18" cy="18" r="18" fill="#FFF" fill-opacity=".3"/>
    <path fill="#B7B7B7" d="M17,17 L17,10 C17,9.44771525 17.4477153,9 18,9 C18.5522847,9 19,9.44771525 19,10 L19,17 L26,17 C26.5522847,17 27,17.4477153 27,18 C27,18.5522847 26.5522847,19 26,19 L19,19 L19,26 C19,26.5522847 18.5522847,27 18,27 C17.4477153,27 17,26.5522847 17,26 L17,19 L10,19 C9.44771525,19 9,18.5522847 9,18 C9,17.4477153 9.44771525,17 10,17 L17,17 Z"/>
  </g>
</svg>
