<svg xmlns="http://www.w3.org/2000/svg" width="120" height="40" viewBox="0 0 120 40">
  <g fill="none" fill-rule="evenodd">
    <g fill-rule="nonzero">
      <path fill="#A6A6A6" d="M110.13477,0 L9.53468,0 C9.16798,0 8.80568,0 8.43995,0.002 C8.1338,0.004 7.83009,0.00981 7.521,0.0147 C6.84951368,0.0226018036 6.17960647,0.0816762599 5.5171,0.19141 C4.85552408,0.303532628 4.21467252,0.51491574 3.61622,0.81841 C3.01849941,1.12447171 2.47234502,1.52216753 1.99757,1.99707 C1.5203025,2.47063699 1.12246318,3.01801638 0.81935,3.61816 C0.515400242,4.21710912 0.304640498,4.8589383 0.19435,5.52148 C0.0830109412,6.18318491 0.0230983806,6.85252054 0.01515,7.52348 C0.00587,7.83008 0.00489,8.1377 0,8.44434 L0,31.5586 C0.00489,31.8691 0.00587,32.1699 0.01515,32.4805 C0.023100818,33.1514262 0.0830133796,33.8207284 0.19435,34.4824 C0.304335953,35.145329 0.515108158,35.7875266 0.81935,36.3867 C1.12232555,36.9849029 1.52022081,37.5300662 1.99757,38.001 C2.47054482,38.478014 3.01705224,38.8759804 3.61622,39.1797 C4.21466797,39.4840065 4.85545044,39.6966478 5.5171,39.8105 C6.1797191,39.9193547 6.84955741,39.9784532 7.521,39.9873 C7.83009,39.9941 8.1338,39.998 8.43995,39.998 C8.80567,40 9.168,40 9.53468,40 L110.13477,40 C110.49417,40 110.85937,40 111.21877,39.998 C111.52347,39.998 111.83597,39.9941 112.14067,39.9873 C112.810843,39.9789237 113.47942,39.9198215 114.14067,39.8105 C114.804454,39.6958464 115.447534,39.4832614 116.04887,39.1797 C116.647497,38.8758046 117.1935,38.4778491 117.66607,38.001 C118.142188,37.5282218 118.540932,36.9834573 118.84767,36.3867 C119.149629,35.7870908 119.358395,35.1449445 119.46677,34.4824 C119.578285,33.8206376 119.640323,33.1514843 119.65237,32.4805 C119.65627,32.1699 119.65627,31.8691 119.65627,31.5586 C119.66407,31.1953 119.66407,30.834 119.66407,30.4648 L119.66407,9.53613 C119.66407,9.16992 119.66407,8.80664 119.65627,8.44434 C119.65627,8.1377 119.65627,7.83008 119.65237,7.52344 C119.640326,6.85242244 119.578287,6.18323567 119.46677,5.52144 C119.358093,4.8592816 119.149339,4.21750328 118.84767,3.61812 C118.230394,2.41519608 117.251573,1.4360254 116.04887,0.81832 C115.447532,0.51556738 114.804383,0.30424041 114.14067,0.19132 C113.479535,0.0811027831 112.810888,0.0220077649 112.14067,0.01456 C111.83597,0.00968 111.52347,0.00382 111.21877,0.00187 C110.85937,-0.00013 110.49417,-0.00013 110.13477,-0.00013 L110.13477,0 Z"/>
      <path fill="#000" d="M8.44483,39.125 C8.14015,39.125 7.84283,39.1211 7.54054,39.1143 C6.91432177,39.1061407 6.28956717,39.051625 5.6714,38.9512 C5.0949903,38.8519282 4.53660424,38.6672645 4.01466,38.4033 C3.4975017,38.1415227 3.02581177,37.7982729 2.61766,37.3867 C2.20360033,36.9799753 1.85887673,36.508244 1.59715,35.9902 C1.33253926,35.4687891 1.14941288,34.9098996 1.05415,34.333 C0.951274358,33.7131149 0.895614374,33.0863132 0.88765,32.458 C0.88131,32.2471 0.87301,31.5449 0.87301,31.5449 L0.87301,8.44434 C0.87301,8.44434 0.88185,7.75293 0.8877,7.5498 C0.895325827,6.92248205 0.950662148,6.2966531 1.05323,5.67773 C1.14866872,5.09925008 1.33193687,4.53874887 1.59669,4.01563 C1.85745482,3.49794385 2.20026458,3.02586029 2.61183,2.61768 C3.02293283,2.20562142 3.49613161,1.86060412 4.01417,1.59521 C4.53491467,1.3320936 5.09224545,1.14873255 5.66749,1.05127 C6.28768733,0.949836139 6.91461084,0.894996084 7.543,0.88721 L8.44532,0.875 L111.21387,0.875 L112.12697,0.8877 C112.749643,0.895099198 113.370872,0.949450006 113.98537,1.05029 C114.566438,1.14897507 115.129577,1.33361553 115.65627,1.59814 C116.694088,2.13298605 117.538542,2.97916295 118.07127,4.01807 C118.331797,4.53757756 118.512239,5.09350676 118.60647,5.66699 C118.710259,6.29099138 118.768347,6.92173834 118.78027,7.5542 C118.78317,7.8374 118.78317,8.1416 118.78317,8.44434 C118.79107,8.81934 118.79107,9.17627 118.79107,9.53613 L118.79107,30.4648 C118.79107,30.8281 118.79107,31.1826 118.78317,31.54 C118.78317,31.8652 118.78317,32.1631 118.77927,32.4697 C118.767605,33.0908757 118.710486,33.7103642 118.60837,34.3232 C118.51506,34.9042612 118.33293,35.4675131 118.06837,35.9932 C117.804793,36.5056211 117.462049,36.9732662 117.05277,37.3789 C116.644251,37.7926846 116.171729,38.1379427 115.65337,38.4014 C115.128136,38.6673937 114.565826,38.8527403 113.98537,38.9512 C113.36725,39.052161 112.742435,39.1066802 112.11617,39.1143 C111.82327,39.1211 111.51657,39.125 111.21877,39.125 L110.13477,39.127 L8.44483,39.125 Z"/>
      <g fill="#FFF" transform="translate(9 7)">
        <path d="M15.99671 12.88935C16.0194402 11.1251965 16.94431 9.4956559 18.44729 8.57164 17.4948204 7.211346 15.9566895 6.37981052 14.2969 6.32788 12.55066 6.14458 10.85777 7.3728 9.9679 7.3728 9.06083 7.3728 7.69077 6.34608 6.21543 6.37643 4.27427913 6.43914505 2.50846997 7.5160473 1.56406 9.21313-.44705 12.69513 1.05306 17.81252 2.97957 20.62713 3.94345 22.00536 5.06994 23.54487 6.54395 23.49028 7.98635 23.43045 8.52506 22.57051 10.26615 22.57051 11.99109 22.57051 12.4965 23.49028 14.00042 23.45557 15.54819 23.43045 16.52334 22.07122 17.45342 20.67994 18.1459669 19.6979035 18.6788802 18.6125388 19.03242 17.46405 17.1941431 16.6865494 15.9988493 14.885287 15.99671 12.88935zM13.15611 4.47681C14.000021 3.46373521 14.4157857 2.16159511 14.31511.84692 13.0258135.982334929 11.8348645 1.59853425 10.97956 2.57274 10.134985 3.53392609 9.70712564 4.79141544 9.79022 6.06824 11.0967983 6.08168935 12.3373661 5.49513519 13.15611 4.47681z"/>
        <g transform="translate(25 10)">
          <path d="M8.30178 10.13965L3.56838 10.13965 2.43166 13.4961.42678 13.4961 4.91018 1.0781 6.99318 1.0781 11.47658 13.4961 9.43752 13.4961 8.30178 10.13965zM4.05862 8.59082L7.81062 8.59082 5.961 3.14355 5.9092 3.14355 4.05862 8.59082zM21.1592 8.96973C21.1592 11.78321 19.65334 13.59082 17.38088 13.59082 16.2062653 13.6522646 15.0998424 13.0370307 14.53225 12.00682L14.48925 12.00682 14.48925 16.4912 12.63085 16.4912 12.63085 4.44238 14.42968 4.44238 14.42968 5.94824 14.46386 5.94824C15.0566683 4.92448792 16.1642843 4.30951884 17.34667 4.34765 19.64455 4.34766 21.1592 6.16406 21.1592 8.96973zM19.24904 8.96973C19.24904 7.13673 18.30177 5.93164 16.85646 5.93164 15.43654 5.93164 14.48146 7.16211 14.48146 8.96973 14.48146 10.79395 15.43654 12.01563 16.85646 12.01563 18.30178 12.01563 19.249 10.81934 19.249 8.96973L19.24904 8.96973zM31.12453 8.96973C31.12453 11.78321 29.61818 13.59082 27.34572 13.59082 26.1711053 13.6522646 25.0646824 13.0370307 24.49709 12.00682L24.45409 12.00682 24.45409 16.4912 22.59569 16.4912 22.59569 4.44238 24.39452 4.44238 24.39452 5.94824 24.4287 5.94824C25.0215083 4.92448792 26.1291243 4.30951884 27.31151 4.34765 29.6094 4.34766 31.12453 6.16406 31.12453 8.96973zM29.21389 8.96973C29.21389 7.13673 28.26662 5.93164 26.82131 5.93164 25.40139 5.93164 24.44631 7.16211 24.44631 8.96973 24.44631 10.79395 25.40139 12.01563 26.82131 12.01563 28.26662 12.01563 29.21389 10.81934 29.21389 8.96973zM37.70949 10.03613C37.84719 11.26758 39.04349 12.07613 40.67824 12.07613 42.24465 12.07613 43.3716 11.26754 43.3716 10.15718 43.3716 9.19331 42.69191 8.61618 41.08254 8.22066L39.47317 7.83296C37.1929 7.28218 36.1343 6.21577 36.1343 4.4853 36.1343 2.34272 38.00149.87104 40.65188.87104 43.27688.87104 45.07571 2.34272 45.13626 4.4853L43.26026 4.4853C43.14796 3.24604 42.12354 2.498 40.62647 2.498 39.1294 2.498 38.10499 3.25484 38.10499 4.3564 38.10499 5.23433 38.75929 5.75093 40.35987 6.1464L41.72803 6.48234C44.27588 7.08488 45.3335 8.10834 45.3335 9.92472 45.3335 12.24796 43.48389 13.70304 40.5405 13.70304 37.78659 13.70304 35.92722 12.28214 35.8071 10.03604L37.70949 10.03613zM49.34621 2.2998L49.34621 4.44238 51.06789 4.44238 51.06789 5.91406 49.34621 5.91406 49.34621 10.90527C49.34621 11.68066 49.69094 12.04199 50.44777 12.04199 50.6521614 12.0384259 50.8562221 12.0240726 51.0591 11.99899L51.0591 13.46188C50.7188283 13.5254596 50.3729708 13.5542545 50.02687 13.54782 48.19387 13.54782 47.47902 12.85934 47.47902 11.10348L47.47902 5.91406 46.16262 5.91406 46.16262 4.44238 47.479 4.44238 47.479 2.2998 49.34621 2.2998zM52.064 8.96973C52.064 6.1211 53.74173 4.33106 56.35795 4.33106 58.98295 4.33106 60.65287 6.12106 60.65287 8.96973 60.65287 11.82618 58.99174 13.6084 56.35795 13.6084 53.72512 13.6084 52.064 11.82617 52.064 8.96973zM58.75931 8.96973C58.75931 7.01563 57.8638 5.86231 56.35794 5.86231 54.85208 5.86231 53.95657 7.02442 53.95657 8.96973 53.95657 10.93164 54.85208 12.07618 56.35794 12.07618 57.8638 12.07618 58.7593 10.93164 58.7593 8.96973L58.75931 8.96973zM62.18508 4.44238L63.95754 4.44238 63.95754 5.98338 64.00054 5.98338C64.247716 4.99136841 65.1566726 4.30863156 66.17827 4.34764 66.392434 4.34689223 66.6060072 4.37015075 66.81499 4.41698L66.81499 6.15526C66.544621 6.07264332 66.2625796 6.03471129 65.97999 6.04296 65.4336382 6.02079544 64.9048909 6.23853473 64.5325815 6.63900597 64.160272 7.03947722 63.9815966 7.58267074 64.04347 8.12596L64.04347 13.49608 62.18507 13.49608 62.18508 4.44238zM75.38332 10.83691C75.13332 12.48046 73.53273 13.60839 71.48488 13.60839 68.85109 13.60839 67.21633 11.84374 67.21633 9.01269 67.21633 6.17285 68.85988 4.33105 71.40676 4.33105 73.91164 4.33105 75.48684 6.05175 75.48684 8.79687L75.48684 9.43359 69.09231 9.43359 69.09231 9.54589C69.0326074 10.2199216 69.2653516 10.8871194 69.7313399 11.3777699 70.1973283 11.8684204 70.8516475 12.1352333 71.52786 12.11034 72.4297023 12.1948396 73.2799631 11.6769777 73.61868 10.8369L75.38332 10.83691zM69.1010824 8.13477L73.62746 8.13476C73.6611855 7.52909749 73.4407165 6.93682308 73.0191701 6.50063155 72.5976236 6.06444001 72.0132208 5.82388041 71.40676 5.83691 70.7955018 5.83326223 70.2081107 6.07393463 69.7751455 6.50543324 69.3421803 6.93693186 69.0995163 7.52350292 69.1010824 8.13477z"/>
        </g>
      </g>
    </g>
    <path fill="#FFF" d="M3.00649129,6.37606838 C1.44345746,6.37606838 0,5.23931624 0,3.21367521 C0,1.18803419 1.50324564,0.0598290598 3.00649129,0.0598290598 C4.39016057,0.0598290598 5.36385378,0.811965812 5.67133584,1.98290598 L4.89408951,2.25641026 C4.66347796,1.34188034 3.99726683,0.829059829 3.00649129,0.829059829 C1.90468056,0.829059829 0.854116843,1.63247863 0.854116843,3.21367521 C0.854116843,4.79487179 1.90468056,5.60683761 3.00649129,5.60683761 C4.03997267,5.60683761 4.68910147,4.98290598 4.93679535,4.15384615 L5.67987701,4.42735043 C5.35531261,5.56410256 4.39870174,6.37606838 3.00649129,6.37606838 Z M8.46429792,5.65811966 C9.14759139,5.65811966 9.74547318,5.14529915 9.74547318,4.18803419 C9.74547318,3.23931624 9.14759139,2.72649573 8.46429792,2.72649573 C7.78100444,2.72649573 7.18312265,3.23931624 7.18312265,4.18803419 C7.18312265,5.14529915 7.78100444,5.65811966 8.46429792,5.65811966 Z M8.46429792,2.00854701 C9.69422617,2.00854701 10.5654254,2.94017094 10.5654254,4.18803419 C10.5654254,5.44444444 9.69422617,6.37606838 8.46429792,6.37606838 C7.23436966,6.37606838 6.36317048,5.44444444 6.36317048,4.18803419 C6.36317048,2.94017094 7.23436966,2.00854701 8.46429792,2.00854701 Z M12.3846942,6.24786325 L11.5903656,6.24786325 L11.5903656,2.13675214 L12.3590707,2.13675214 L12.3590707,2.68376068 C12.6153058,2.23076923 13.1277759,2.01709402 13.6060813,2.01709402 C14.1185514,2.01709402 14.6139392,2.26495726 14.8360096,2.79487179 C15.160574,2.20512821 15.6901264,2.01709402 16.2111377,2.01709402 C16.9285958,2.01709402 17.6289716,2.5042735 17.6289716,3.58119658 L17.6289716,6.24786325 L16.834643,6.24786325 L16.834643,3.66666667 C16.834643,3.12820513 16.5698668,2.72649573 15.9634438,2.72649573 C15.3997267,2.72649573 15.0153741,3.17094017 15.0153741,3.76068376 L15.0153741,6.24786325 L14.2125043,6.24786325 L14.2125043,3.66666667 C14.2125043,3.13675214 13.9562692,2.72649573 13.3413051,2.72649573 C12.7690468,2.72649573 12.3846942,3.15384615 12.3846942,3.76923077 L12.3846942,6.24786325 Z M19.7044756,6.24786325 L18.9101469,6.24786325 L18.9101469,2.13675214 L19.7044756,2.13675214 L19.7044756,6.24786325 Z M18.7307824,0.581196581 C18.7307824,0.256410256 18.9870174,0 19.3030407,0 C19.6276051,0 19.8838401,0.256410256 19.8838401,0.581196581 C19.8838401,0.897435897 19.6276051,1.15384615 19.3030407,1.15384615 C18.9870174,1.15384615 18.7307824,0.897435897 18.7307824,0.581196581 Z M21.8739324,3.87179487 L21.8739324,6.24786325 L21.0710625,6.24786325 L21.0710625,2.13675214 L21.85685,2.13675214 L21.85685,2.72649573 C22.1557909,2.21367521 22.6426375,2.01709402 23.1209429,2.01709402 C24.1031773,2.01709402 24.5900239,2.72649573 24.5900239,3.64102564 L24.5900239,6.24786325 L23.7871541,6.24786325 L23.7871541,3.77777778 C23.7871541,3.20512821 23.5480014,2.74358974 22.8305432,2.74358974 C22.1984968,2.74358974 21.8739324,3.24786325 21.8739324,3.87179487 Z M25.5722583,6.47008547 L26.3495046,6.29059829 C26.4092928,6.86324786 26.8448924,7.2991453 27.4683977,7.2991453 C28.3310557,7.2991453 28.7239494,6.85470085 28.7239494,5.96581197 L28.7239494,5.37606838 C28.5275026,5.75213675 28.0833618,6.05128205 27.4683977,6.05128205 C26.3751281,6.05128205 25.5807995,5.22222222 25.5807995,4.05982906 C25.5807995,2.94871795 26.3409634,2.05982906 27.4683977,2.05982906 C28.1004441,2.05982906 28.5275026,2.2991453 28.7324906,2.70940171 L28.7324906,2.13675214 L29.5268193,2.13675214 L29.5268193,5.94017094 C29.5268193,6.98290598 29.0143492,8 27.4683977,8 C26.4434575,8 25.6747523,7.35042735 25.5722583,6.47008547 Z M27.587974,5.37606838 C28.2798087,5.37606838 28.7581141,4.85470085 28.7581141,4.05982906 C28.7581141,3.26495726 28.2798087,2.74358974 27.587974,2.74358974 C26.8790571,2.74358974 26.4007516,3.26495726 26.4007516,4.05982906 C26.4007516,4.86324786 26.8619747,5.37606838 27.587974,5.37606838 Z M32.5589341,5.17948718 L33.2849334,4.92307692 C33.3361804,5.35042735 33.6607448,5.69230769 34.2415442,5.69230769 C34.6942262,5.69230769 34.9419201,5.43589744 34.9419201,5.14529915 C34.9419201,4.88888889 34.7540143,4.69230769 34.4123676,4.61538462 L33.7119918,4.46153846 C33.0714042,4.32478632 32.6870516,3.88888889 32.6870516,3.30769231 C32.6870516,2.60683761 33.3447216,2.00854701 34.1475914,2.00854701 C35.2750256,2.00854701 35.6252135,2.74358974 35.7106252,3.11111111 L35.0017082,3.37606838 C34.9675436,3.16239316 34.7967202,2.69230769 34.1475914,2.69230769 C33.7376153,2.69230769 33.4642979,2.95726496 33.4642979,3.23931624 C33.4642979,3.48717949 33.6180389,3.66666667 33.9340622,3.73504274 L34.6002733,3.88034188 C35.343355,4.04273504 35.7362487,4.4957265 35.7362487,5.1025641 C35.7362487,5.68376068 35.2494021,6.37606838 34.2330031,6.37606838 C33.1055688,6.37606838 32.6272634,5.64957265 32.5589341,5.17948718 Z M38.5633755,5.65811966 C39.2466689,5.65811966 39.8445507,5.14529915 39.8445507,4.18803419 C39.8445507,3.23931624 39.2466689,2.72649573 38.5633755,2.72649573 C37.880082,2.72649573 37.2822002,3.23931624 37.2822002,4.18803419 C37.2822002,5.14529915 37.880082,5.65811966 38.5633755,5.65811966 Z M38.5633755,2.00854701 C39.7933037,2.00854701 40.6645029,2.94017094 40.6645029,4.18803419 C40.6645029,5.44444444 39.7933037,6.37606838 38.5633755,6.37606838 C37.3334472,6.37606838 36.462248,5.44444444 36.462248,4.18803419 C36.462248,2.94017094 37.3334472,2.00854701 38.5633755,2.00854701 Z M43.4489238,5.65811966 C44.1322173,5.65811966 44.7300991,5.14529915 44.7300991,4.18803419 C44.7300991,3.23931624 44.1322173,2.72649573 43.4489238,2.72649573 C42.7656303,2.72649573 42.1677485,3.23931624 42.1677485,4.18803419 C42.1677485,5.14529915 42.7656303,5.65811966 43.4489238,5.65811966 Z M43.4489238,2.00854701 C44.6788521,2.00854701 45.5500512,2.94017094 45.5500512,4.18803419 C45.5500512,5.44444444 44.6788521,6.37606838 43.4489238,6.37606838 C42.2189956,6.37606838 41.3477964,5.44444444 41.3477964,4.18803419 C41.3477964,2.94017094 42.2189956,2.00854701 43.4489238,2.00854701 Z M47.3778613,3.87179487 L47.3778613,6.24786325 L46.5749915,6.24786325 L46.5749915,2.13675214 L47.360779,2.13675214 L47.360779,2.72649573 C47.6597198,2.21367521 48.1465665,2.01709402 48.6248719,2.01709402 C49.6071063,2.01709402 50.0939529,2.72649573 50.0939529,3.64102564 L50.0939529,6.24786325 L49.291083,6.24786325 L49.291083,3.77777778 C49.291083,3.20512821 49.0519303,2.74358974 48.3344722,2.74358974 C47.7024257,2.74358974 47.3778613,3.24786325 47.3778613,3.87179487 Z M54.5866074,0.837606838 L54.5866074,2.13675214 L55.474889,2.13675214 L55.474889,2.86324786 L54.5866074,2.86324786 L54.5866074,5 C54.5866074,5.37606838 54.7403485,5.56410256 55.1588657,5.56410256 C55.2613598,5.56410256 55.4065596,5.54700855 55.474889,5.52991453 L55.474889,6.21367521 C55.4065596,6.23931624 55.2015716,6.29059829 54.9282542,6.29059829 C54.2278784,6.29059829 53.7837376,5.86324786 53.7837376,5.11965812 L53.7837376,2.86324786 L52.9979501,2.86324786 L52.9979501,2.13675214 L53.2200205,2.13675214 C53.6641613,2.13675214 53.852067,1.86324786 53.852067,1.5042735 L53.852067,0.837606838 L54.5866074,0.837606838 Z M58.3020157,5.65811966 C58.9853092,5.65811966 59.583191,5.14529915 59.583191,4.18803419 C59.583191,3.23931624 58.9853092,2.72649573 58.3020157,2.72649573 C57.6187222,2.72649573 57.0208405,3.23931624 57.0208405,4.18803419 C57.0208405,5.14529915 57.6187222,5.65811966 58.3020157,5.65811966 Z M58.3020157,2.00854701 C59.531944,2.00854701 60.4031431,2.94017094 60.4031431,4.18803419 C60.4031431,5.44444444 59.531944,6.37606838 58.3020157,6.37606838 C57.0720875,6.37606838 56.2008883,5.44444444 56.2008883,4.18803419 C56.2008883,2.94017094 57.0720875,2.00854701 58.3020157,2.00854701 Z M64.6395627,0.837606838 L64.6395627,2.13675214 L65.5278442,2.13675214 L65.5278442,2.86324786 L64.6395627,2.86324786 L64.6395627,5 C64.6395627,5.37606838 64.7933037,5.56410256 65.211821,5.56410256 C65.314315,5.56410256 65.4595149,5.54700855 65.5278442,5.52991453 L65.5278442,6.21367521 C65.4595149,6.23931624 65.2545268,6.29059829 64.9812094,6.29059829 C64.2808336,6.29059829 63.8366929,5.86324786 63.8366929,5.11965812 L63.8366929,2.86324786 L63.0509054,2.86324786 L63.0509054,2.13675214 L63.2729757,2.13675214 C63.7171165,2.13675214 63.9050222,1.86324786 63.9050222,1.5042735 L63.9050222,0.837606838 L64.6395627,0.837606838 Z M67.3983601,3.82905983 L67.3983601,6.24786325 L66.5954903,6.24786325 L66.5954903,0.0598290598 L67.3983601,0.0598290598 L67.3983601,2.61538462 C67.697301,2.17948718 68.1756064,2.01709402 68.6453707,2.01709402 C69.6276051,2.01709402 70.1144517,2.72649573 70.1144517,3.64102564 L70.1144517,6.24786325 L69.3115818,6.24786325 L69.3115818,3.77777778 C69.3115818,3.20512821 69.0724291,2.74358974 68.354971,2.74358974 C67.7400068,2.74358974 67.4154424,3.22222222 67.3983601,3.82905983 Z M71.9166382,3.76923077 L74.1629655,3.76923077 C74.1458832,3.17948718 73.7615306,2.71794872 73.0355313,2.71794872 C72.360779,2.71794872 71.9508029,3.23931624 71.9166382,3.76923077 Z M74.2825419,4.83760684 L74.9743765,5.07692308 C74.7437649,5.8034188 74.086095,6.37606838 73.1294841,6.37606838 C72.0276734,6.37606838 71.0625214,5.57264957 71.0625214,4.17948718 C71.0625214,2.88888889 71.9935087,2.00854701 73.0269901,2.00854701 C74.291083,2.00854701 75,2.88034188 75,4.16239316 C75,4.26495726 74.9914588,4.36752137 74.9829177,4.41880342 L71.8910147,4.41880342 C71.908097,5.15384615 72.4376495,5.66666667 73.1294841,5.66666667 C73.7956953,5.66666667 74.1288008,5.2991453 74.2825419,4.83760684 Z" transform="translate(35 8)"/>
  </g>
</svg>
