<svg xmlns="http://www.w3.org/2000/svg" width="120" height="40" viewBox="0 0 120 40">
  <g fill="none" fill-rule="evenodd" transform="translate(0 -1)">
    <g fill-rule="nonzero" transform="translate(0 1)">
      <path fill="#000" d="M110.13477,0 L9.53468,0 C9.16798,0 8.80568,0 8.43995,0.002 C8.1338,0.004 7.83009,0.00981 7.521,0.0147 C6.84951368,0.0226018036 6.17960647,0.0816762599 5.5171,0.19141 C4.85552408,0.303532628 4.21467252,0.51491574 3.61622,0.81841 C3.01849941,1.12447171 2.47234502,1.52216753 1.99757,1.99707 C1.5203025,2.47063699 1.12246318,3.01801638 0.81935,3.61816 C0.515400242,4.21710912 0.304640498,4.8589383 0.19435,5.52148 C0.0830109412,6.18318491 0.0230983806,6.85252054 0.01515,7.52348 C0.00587,7.83008 0.00489,8.1377 0,8.44434 L0,31.5586 C0.00489,31.8691 0.00587,32.1699 0.01515,32.4805 C0.023100818,33.1514262 0.0830133796,33.8207284 0.19435,34.4824 C0.304335953,35.145329 0.515108158,35.7875266 0.81935,36.3867 C1.12232555,36.9849029 1.52022081,37.5300662 1.99757,38.001 C2.47054482,38.478014 3.01705224,38.8759804 3.61622,39.1797 C4.21466797,39.4840065 4.85545044,39.6966478 5.5171,39.8105 C6.1797191,39.9193547 6.84955741,39.9784532 7.521,39.9873 C7.83009,39.9941 8.1338,39.998 8.43995,39.998 C8.80567,40 9.168,40 9.53468,40 L110.13477,40 C110.49417,40 110.85937,40 111.21877,39.998 C111.52347,39.998 111.83597,39.9941 112.14067,39.9873 C112.810843,39.9789237 113.47942,39.9198215 114.14067,39.8105 C114.804454,39.6958464 115.447534,39.4832614 116.04887,39.1797 C116.647497,38.8758046 117.1935,38.4778491 117.66607,38.001 C118.142188,37.5282218 118.540932,36.9834573 118.84767,36.3867 C119.149629,35.7870908 119.358395,35.1449445 119.46677,34.4824 C119.578285,33.8206376 119.640323,33.1514843 119.65237,32.4805 C119.65627,32.1699 119.65627,31.8691 119.65627,31.5586 C119.66407,31.1953 119.66407,30.834 119.66407,30.4648 L119.66407,9.53613 C119.66407,9.16992 119.66407,8.80664 119.65627,8.44434 C119.65627,8.1377 119.65627,7.83008 119.65237,7.52344 C119.640326,6.85242244 119.578287,6.18323567 119.46677,5.52144 C119.358093,4.8592816 119.149339,4.21750328 118.84767,3.61812 C118.230394,2.41519608 117.251573,1.4360254 116.04887,0.81832 C115.447532,0.51556738 114.804383,0.30424041 114.14067,0.19132 C113.479535,0.0811027831 112.810888,0.0220077649 112.14067,0.01456 C111.83597,0.00968 111.52347,0.00382 111.21877,0.00187 C110.85937,-0.00013 110.49417,-0.00013 110.13477,-0.00013 L110.13477,0 Z"/>
      <path fill="#FFF" d="M8.44483,39.125 C8.14015,39.125 7.84283,39.1211 7.54054,39.1143 C6.91432177,39.1061407 6.28956717,39.051625 5.6714,38.9512 C5.0949903,38.8519282 4.53660424,38.6672645 4.01466,38.4033 C3.4975017,38.1415227 3.02581177,37.7982729 2.61766,37.3867 C2.20360033,36.9799753 1.85887673,36.508244 1.59715,35.9902 C1.33253926,35.4687891 1.14941288,34.9098996 1.05415,34.333 C0.951274358,33.7131149 0.895614374,33.0863132 0.88765,32.458 C0.88131,32.2471 0.87301,31.5449 0.87301,31.5449 L0.87301,8.44434 C0.87301,8.44434 0.88185,7.75293 0.8877,7.5498 C0.895325827,6.92248205 0.950662148,6.2966531 1.05323,5.67773 C1.14866872,5.09925008 1.33193687,4.53874887 1.59669,4.01563 C1.85745482,3.49794385 2.20026458,3.02586029 2.61183,2.61768 C3.02293283,2.20562142 3.49613161,1.86060412 4.01417,1.59521 C4.53491467,1.3320936 5.09224545,1.14873255 5.66749,1.05127 C6.28768733,0.949836139 6.91461084,0.894996084 7.543,0.88721 L8.44532,0.875 L111.21387,0.875 L112.12697,0.8877 C112.749643,0.895099198 113.370872,0.949450006 113.98537,1.05029 C114.566438,1.14897507 115.129577,1.33361553 115.65627,1.59814 C116.694088,2.13298605 117.538542,2.97916295 118.07127,4.01807 C118.331797,4.53757756 118.512239,5.09350676 118.60647,5.66699 C118.710259,6.29099138 118.768347,6.92173834 118.78027,7.5542 C118.78317,7.8374 118.78317,8.1416 118.78317,8.44434 C118.79107,8.81934 118.79107,9.17627 118.79107,9.53613 L118.79107,30.4648 C118.79107,30.8281 118.79107,31.1826 118.78317,31.54 C118.78317,31.8652 118.78317,32.1631 118.77927,32.4697 C118.767605,33.0908757 118.710486,33.7103642 118.60837,34.3232 C118.51506,34.9042612 118.33293,35.4675131 118.06837,35.9932 C117.804793,36.5056211 117.462049,36.9732662 117.05277,37.3789 C116.644251,37.7926846 116.171729,38.1379427 115.65337,38.4014 C115.128136,38.6673937 114.565826,38.8527403 113.98537,38.9512 C113.36725,39.052161 112.742435,39.1066802 112.11617,39.1143 C111.82327,39.1211 111.51657,39.125 111.21877,39.125 L110.13477,39.127 L8.44483,39.125 Z"/>
    </g>
    <path fill="#000" d="M20.14 16.15C18.31 16.15 16.62 14.82 16.62 12.45 16.62 10.08 18.38 8.76 20.14 8.76 21.76 8.76 22.9 9.64 23.26 11.01L22.35 11.33C22.08 10.26 21.3 9.66 20.14 9.66 18.85 9.66 17.62 10.6 17.62 12.45 17.62 14.3 18.85 15.25 20.14 15.25 21.35 15.25 22.11 14.52 22.4 13.55L23.27 13.87C22.89 15.2 21.77 16.15 20.14 16.15zM26.53 15.31C27.33 15.31 28.03 14.71 28.03 13.59 28.03 12.48 27.33 11.88 26.53 11.88 25.73 11.88 25.03 12.48 25.03 13.59 25.03 14.71 25.73 15.31 26.53 15.31zM26.53 11.04C27.97 11.04 28.99 12.13 28.99 13.59 28.99 15.06 27.97 16.15 26.53 16.15 25.09 16.15 24.07 15.06 24.07 13.59 24.07 12.13 25.09 11.04 26.53 11.04zM31.12 16L30.19 16 30.19 11.19 31.09 11.19 31.09 11.83C31.39 11.3 31.99 11.05 32.55 11.05 33.15 11.05 33.73 11.34 33.99 11.96 34.37 11.27 34.99 11.05 35.6 11.05 36.44 11.05 37.26 11.62 37.26 12.88L37.26 16 36.33 16 36.33 12.98C36.33 12.35 36.02 11.88 35.31 11.88 34.65 11.88 34.2 12.4 34.2 13.09L34.2 16 33.26 16 33.26 12.98C33.26 12.36 32.96 11.88 32.24 11.88 31.57 11.88 31.12 12.38 31.12 13.1L31.12 16zM39.69 16L38.76 16 38.76 11.19 39.69 11.19 39.69 16zM38.55 9.37C38.55 8.99 38.85 8.69 39.22 8.69 39.6 8.69 39.9 8.99 39.9 9.37 39.9 9.74 39.6 10.04 39.22 10.04 38.85 10.04 38.55 9.74 38.55 9.37zM42.23 13.22L42.23 16 41.29 16 41.29 11.19 42.21 11.19 42.21 11.88C42.56 11.28 43.13 11.05 43.69 11.05 44.84 11.05 45.41 11.88 45.41 12.95L45.41 16 44.47 16 44.47 13.11C44.47 12.44 44.19 11.9 43.35 11.9 42.61 11.9 42.23 12.49 42.23 13.22zM46.56 16.26L47.47 16.05C47.54 16.72 48.05 17.23 48.78 17.23 49.79 17.23 50.25 16.71 50.25 15.67L50.25 14.98C50.02 15.42 49.5 15.77 48.78 15.77 47.5 15.77 46.57 14.8 46.57 13.44 46.57 12.14 47.46 11.1 48.78 11.1 49.52 11.1 50.02 11.38 50.26 11.86L50.26 11.19 51.19 11.19 51.19 15.64C51.19 16.86 50.59 18.05 48.78 18.05 47.58 18.05 46.68 17.29 46.56 16.26zM48.92 14.98C49.73 14.98 50.29 14.37 50.29 13.44 50.29 12.51 49.73 11.9 48.92 11.9 48.09 11.9 47.53 12.51 47.53 13.44 47.53 14.38 48.07 14.98 48.92 14.98zM54.74 14.75L55.59 14.45C55.65 14.95 56.03 15.35 56.71 15.35 57.24 15.35 57.53 15.05 57.53 14.71 57.53 14.41 57.31 14.18 56.91 14.09L56.09 13.91C55.34 13.75 54.89 13.24 54.89 12.56 54.89 11.74 55.66 11.04 56.6 11.04 57.92 11.04 58.33 11.9 58.43 12.33L57.6 12.64C57.56 12.39 57.36 11.84 56.6 11.84 56.12 11.84 55.8 12.15 55.8 12.48 55.8 12.77 55.98 12.98 56.35 13.06L57.13 13.23C58 13.42 58.46 13.95 58.46 14.66 58.46 15.34 57.89 16.15 56.7 16.15 55.38 16.15 54.82 15.3 54.74 14.75zM61.77 15.31C62.57 15.31 63.27 14.71 63.27 13.59 63.27 12.48 62.57 11.88 61.77 11.88 60.97 11.88 60.27 12.48 60.27 13.59 60.27 14.71 60.97 15.31 61.77 15.31zM61.77 11.04C63.21 11.04 64.23 12.13 64.23 13.59 64.23 15.06 63.21 16.15 61.77 16.15 60.33 16.15 59.31 15.06 59.31 13.59 59.31 12.13 60.33 11.04 61.77 11.04zM67.49 15.31C68.29 15.31 68.99 14.71 68.99 13.59 68.99 12.48 68.29 11.88 67.49 11.88 66.69 11.88 65.99 12.48 65.99 13.59 65.99 14.71 66.69 15.31 67.49 15.31zM67.49 11.04C68.93 11.04 69.95 12.13 69.95 13.59 69.95 15.06 68.93 16.15 67.49 16.15 66.05 16.15 65.03 15.06 65.03 13.59 65.03 12.13 66.05 11.04 67.49 11.04zM72.09 13.22L72.09 16 71.15 16 71.15 11.19 72.07 11.19 72.07 11.88C72.42 11.28 72.99 11.05 73.55 11.05 74.7 11.05 75.27 11.88 75.27 12.95L75.27 16 74.33 16 74.33 13.11C74.33 12.44 74.05 11.9 73.21 11.9 72.47 11.9 72.09 12.49 72.09 13.22zM80.53 9.67L80.53 11.19 81.57 11.19 81.57 12.04 80.53 12.04 80.53 14.54C80.53 14.98 80.71 15.2 81.2 15.2 81.32 15.2 81.49 15.18 81.57 15.16L81.57 15.96C81.49 15.99 81.25 16.05 80.93 16.05 80.11 16.05 79.59 15.55 79.59 14.68L79.59 12.04 78.67 12.04 78.67 11.19 78.93 11.19C79.45 11.19 79.67 10.87 79.67 10.45L79.67 9.67 80.53 9.67zM84.88 15.31C85.68 15.31 86.38 14.71 86.38 13.59 86.38 12.48 85.68 11.88 84.88 11.88 84.08 11.88 83.38 12.48 83.38 13.59 83.38 14.71 84.08 15.31 84.88 15.31zM84.88 11.04C86.32 11.04 87.34 12.13 87.34 13.59 87.34 15.06 86.32 16.15 84.88 16.15 83.44 16.15 82.42 15.06 82.42 13.59 82.42 12.13 83.44 11.04 84.88 11.04zM92.3 9.67L92.3 11.19 93.34 11.19 93.34 12.04 92.3 12.04 92.3 14.54C92.3 14.98 92.48 15.2 92.97 15.2 93.09 15.2 93.26 15.18 93.34 15.16L93.34 15.96C93.26 15.99 93.02 16.05 92.7 16.05 91.88 16.05 91.36 15.55 91.36 14.68L91.36 12.04 90.44 12.04 90.44 11.19 90.7 11.19C91.22 11.19 91.44 10.87 91.44 10.45L91.44 9.67 92.3 9.67zM95.53 13.17L95.53 16 94.59 16 94.59 8.76 95.53 8.76 95.53 11.75C95.88 11.24 96.44 11.05 96.99 11.05 98.14 11.05 98.71 11.88 98.71 12.95L98.71 16 97.77 16 97.77 13.11C97.77 12.44 97.49 11.9 96.65 11.9 95.93 11.9 95.55 12.46 95.53 13.17zM100.82 13.1L103.45 13.1C103.43 12.41 102.98 11.87 102.13 11.87 101.34 11.87 100.86 12.48 100.82 13.1zM103.59 14.35L104.4 14.63C104.13 15.48 103.36 16.15 102.24 16.15 100.95 16.15 99.82 15.21 99.82 13.58 99.82 12.07 100.91 11.04 102.12 11.04 103.6 11.04 104.43 12.06 104.43 13.56 104.43 13.68 104.42 13.8 104.41 13.86L100.79 13.86C100.81 14.72 101.43 15.32 102.24 15.32 103.02 15.32 103.41 14.89 103.59 14.35zM20.93 32L20.222 30.056 16.766 30.056 16.058 32 14.306 32 17.57 23.492 19.49 23.492 22.73 32 20.93 32zM18.494 25.328L17.318 28.544 19.67 28.544 18.494 25.328zM25.298 34.28L23.702 34.28 23.702 26.096 25.25 26.096 25.25 26.816C25.514 26.36 26.174 25.964 27.062 25.964 28.79 25.964 29.786 27.284 29.786 29.036 29.786 30.824 28.67 32.144 27.002 32.144 26.186 32.144 25.586 31.82 25.298 31.424L25.298 34.28zM28.214 29.048C28.214 28.004 27.566 27.392 26.75 27.392 25.934 27.392 25.274 28.004 25.274 29.048 25.274 30.092 25.934 30.716 26.75 30.716 27.566 30.716 28.214 30.104 28.214 29.048zM32.642 34.28L31.046 34.28 31.046 26.096 32.594 26.096 32.594 26.816C32.858 26.36 33.518 25.964 34.406 25.964 36.134 25.964 37.13 27.284 37.13 29.036 37.13 30.824 36.014 32.144 34.346 32.144 33.53 32.144 32.93 31.82 32.642 31.424L32.642 34.28zM35.558 29.048C35.558 28.004 34.91 27.392 34.094 27.392 33.278 27.392 32.618 28.004 32.618 29.048 32.618 30.092 33.278 30.716 34.094 30.716 34.91 30.716 35.558 30.104 35.558 29.048zM39.986 32L38.39 32 38.39 23.312 39.986 23.312 39.986 32zM42.854 28.376L45.494 28.376C45.47 27.788 45.086 27.212 44.174 27.212 43.346 27.212 42.89 27.836 42.854 28.376zM45.65 29.912L46.982 30.308C46.682 31.328 45.746 32.18 44.294 32.18 42.674 32.18 41.246 31.016 41.246 29.024 41.246 27.14 42.638 25.916 44.15 25.916 45.974 25.916 47.066 27.08 47.066 28.976 47.066 29.204 47.042 29.444 47.042 29.468L42.818 29.468C42.854 30.248 43.514 30.812 44.306 30.812 45.05 30.812 45.458 30.44 45.65 29.912zM57.182 32L56.474 30.056 53.018 30.056 52.31 32 50.558 32 53.822 23.492 55.742 23.492 58.982 32 57.182 32zM54.746 25.328L53.57 28.544 55.922 28.544 54.746 25.328zM61.55 34.28L59.954 34.28 59.954 26.096 61.502 26.096 61.502 26.816C61.766 26.36 62.426 25.964 63.314 25.964 65.042 25.964 66.038 27.284 66.038 29.036 66.038 30.824 64.922 32.144 63.254 32.144 62.438 32.144 61.838 31.82 61.55 31.424L61.55 34.28zM64.466 29.048C64.466 28.004 63.818 27.392 63.002 27.392 62.186 27.392 61.526 28.004 61.526 29.048 61.526 30.092 62.186 30.716 63.002 30.716 63.818 30.716 64.466 30.104 64.466 29.048zM68.894 34.28L67.298 34.28 67.298 26.096 68.846 26.096 68.846 26.816C69.11 26.36 69.77 25.964 70.658 25.964 72.386 25.964 73.382 27.284 73.382 29.036 73.382 30.824 72.266 32.144 70.598 32.144 69.782 32.144 69.182 31.82 68.894 31.424L68.894 34.28zM71.81 29.048C71.81 28.004 71.162 27.392 70.346 27.392 69.53 27.392 68.87 28.004 68.87 29.048 68.87 30.092 69.53 30.716 70.346 30.716 71.162 30.716 71.81 30.104 71.81 29.048zM83.45 25.52L81.962 25.976C81.878 25.508 81.494 24.776 80.414 24.776 79.61 24.776 79.082 25.292 79.082 25.856 79.082 26.324 79.382 26.696 80.006 26.816L81.194 27.044C82.742 27.344 83.57 28.352 83.57 29.552 83.57 30.86 82.478 32.18 80.498 32.18 78.242 32.18 77.246 30.728 77.114 29.516L78.65 29.108C78.722 29.948 79.31 30.704 80.51 30.704 81.398 30.704 81.89 30.26 81.89 29.66 81.89 29.168 81.518 28.784 80.858 28.652L79.67 28.412C78.314 28.136 77.438 27.26 77.438 25.976 77.438 24.464 78.794 23.312 80.402 23.312 82.466 23.312 83.258 24.56 83.45 25.52zM86.822 24.332L86.822 26.096 88.01 26.096 88.01 27.512 86.822 27.512 86.822 29.984C86.822 30.5 87.062 30.668 87.518 30.668 87.71 30.668 87.926 30.644 88.01 30.62L88.01 31.94C87.866 32 87.578 32.084 87.11 32.084 85.958 32.084 85.238 31.4 85.238 30.26L85.238 27.512 84.17 27.512 84.17 26.096 84.47 26.096C85.094 26.096 85.382 25.688 85.382 25.16L85.382 24.332 86.822 24.332zM91.982 30.728C92.762 30.728 93.482 30.164 93.482 29.048 93.482 27.932 92.762 27.368 91.982 27.368 91.202 27.368 90.482 27.932 90.482 29.048 90.482 30.152 91.202 30.728 91.982 30.728zM91.982 25.916C93.746 25.916 95.078 27.224 95.078 29.048 95.078 30.86 93.746 32.18 91.982 32.18 90.218 32.18 88.886 30.86 88.886 29.048 88.886 27.224 90.218 25.916 91.982 25.916zM99.938 26.072L99.938 27.68C99.758 27.644 99.602 27.632 99.458 27.632 98.642 27.632 97.934 28.028 97.934 29.3L97.934 32 96.338 32 96.338 26.096 97.886 26.096 97.886 26.972C98.246 26.192 99.062 26.048 99.566 26.048 99.698 26.048 99.818 26.06 99.938 26.072zM102.194 28.376L104.834 28.376C104.81 27.788 104.426 27.212 103.514 27.212 102.686 27.212 102.23 27.836 102.194 28.376zM104.99 29.912L106.322 30.308C106.022 31.328 105.086 32.18 103.634 32.18 102.014 32.18 100.586 31.016 100.586 29.024 100.586 27.14 101.978 25.916 103.49 25.916 105.314 25.916 106.406 27.08 106.406 28.976 106.406 29.204 106.382 29.444 106.382 29.468L102.158 29.468C102.194 30.248 102.854 30.812 103.646 30.812 104.39 30.812 104.798 30.44 104.99 29.912z"/>
  </g>
</svg>
