<svg xmlns="http://www.w3.org/2000/svg" width="20" height="20" viewBox="0 0 20 20">
  <path fill-rule="evenodd" d="M13.5,9.02290857 C13.5,8.85952592 13.3696304,8.72716529 13.2083455,8.72716529 L10.8882338,8.72716529 L12.3185076,4.38880935 L12.3152994,4.387923 C12.324924,4.35867367 12.3333819,4.32853799 12.3333819,4.29544783 C12.3333819,4.13236063 12.2030124,4 12.0417274,4 L9.12518228,4 C8.99656264,4 8.8904004,4.08627077 8.85161035,4.20326811 L8.84840215,4.20208632 L6.51516603,11.2928343 L6.51837423,11.2943115 C6.50874964,11.3235608 6.5,11.3536965 6.5,11.3861958 C6.5,11.5498739 6.63066122,11.681939 6.79165451,11.681939 L9.38271322,11.681939 L8.8352777,16.6717575 L8.83965251,16.6723484 C8.83877755,16.6832799 8.83323612,16.6930297 8.83323612,16.7042567 C8.83323612,16.8679348 8.96389734,17 9.12518228,17 C9.24271905,17 9.3392567,16.9276153 9.38446315,16.8256858 L9.39000458,16.8280494 L13.4731678,9.14640576 L13.4717095,9.14581487 C13.4892088,9.10829299 13.5,9.06722574 13.5,9.02290857" opacity=".7" style="mix-blend-mode:multiply"/>
</svg>
