<?xml version="1.0" encoding="UTF-8"?>
<svg width="22px" height="26px" viewBox="0 0 22 26" version="1.1" xmlns="http://www.w3.org/2000/svg" xmlns:xlink="http://www.w3.org/1999/xlink">
    <!-- Generator: Sketch 47.1 (45422) - http://www.bohemiancoding.com/sketch -->
    <title>icon-discourse</title>
    <desc>Created with Sketch.</desc>
    <defs></defs>
    <g id="Symbols" stroke="none" stroke-width="1" fill="none" fill-rule="evenodd">
        <g id="icon-discourse" fill-rule="nonzero" fill="#000000">
            <g transform="translate(0.000000, 1.000000)" id="Shape">
                <path d="M8.25483304,10 C7.55360281,10 7,10.6756757 7,11.5 C7,12.3243243 7.5659051,13 8.25483304,13 C8.95606327,13 9.50966608,12.3243243 9.50966608,11.5 C9.52196837,10.6756757 8.95606327,10 8.25483304,10 Z M12.745167,10 C12.0439367,10 11.4903339,10.6756757 11.4903339,11.5 C11.4903339,12.3243243 12.056239,13 12.745167,13 C13.4463972,13 14,12.3243243 14,11.5 C14,10.6756757 13.4463972,10 12.745167,10 Z"></path>
                <path d="M19.4228571,0 L2.57714286,0 C1.15657143,0 0,1.15 0,2.575 L0,19.475 C0,20.9 1.15657143,22.05 2.57714286,22.05 L16.8331429,22.05 L16.1668571,19.7375 L17.776,21.225 L19.2971429,22.625 L22,25 L22,2.575 C22,1.15 20.8434286,0 19.4228571,0 Z M14.5702857,16.325 C14.5702857,16.325 14.1177143,15.7875 13.7405714,15.3125 C15.3874286,14.85 16.016,13.825 16.016,13.825 C15.5005714,14.1625 15.0102857,14.4 14.5702857,14.5625 C13.9417143,14.825 13.3382857,15 12.7474286,15.1 C11.5405714,15.325 10.4342857,15.2625 9.49142857,15.0875 C8.77485714,14.95 8.15885714,14.75 7.64342857,14.55 C7.35428571,14.4375 7.04,14.3 6.72571429,14.125 C6.688,14.1 6.65028571,14.0875 6.61257143,14.0625 C6.58742857,14.05 6.57485714,14.0375 6.56228571,14.025 C6.336,13.9 6.21028571,13.8125 6.21028571,13.8125 C6.21028571,13.8125 6.81371429,14.8125 8.41028571,15.2875 C8.03314286,15.7625 7.568,16.325 7.568,16.325 C4.78971429,16.2375 3.73371429,14.425 3.73371429,14.425 C3.73371429,10.4 5.544,7.1375 5.544,7.1375 C7.35428571,5.7875 9.07657143,5.825 9.07657143,5.825 L9.20228571,5.975 C6.93942857,6.625 5.896,7.6125 5.896,7.6125 C5.896,7.6125 6.17257143,7.4625 6.63771429,7.25 C7.98285714,6.6625 9.05142857,6.5 9.49142857,6.4625 C9.56685714,6.45 9.62971429,6.4375 9.70514286,6.4375 C10.472,6.3375 11.3394286,6.3125 12.2445714,6.4125 C13.4388571,6.55 14.7211429,6.9 16.0285714,7.6125 C16.0285714,7.6125 15.0354286,6.675 12.8982857,6.025 L13.0742857,5.825 C13.0742857,5.825 14.7965714,5.7875 16.6068571,7.1375 C16.6068571,7.1375 18.4171429,10.4 18.4171429,14.425 C18.4171429,14.425 17.3485714,16.2375 14.5702857,16.325 L14.5702857,16.325 Z"></path>
            </g>
        </g>
    </g>
</svg>