<svg xmlns="http://www.w3.org/2000/svg" width="22" height="22" viewBox="0 0 22 22">
  <path fill="#7289DA" fill-rule="evenodd" d="M2.5,0 L19.5,0 C20.8807119,-2.53632657e-16 22,1.11928813 22,2.5 L22,19.5 C22,20.8807119 20.8807119,22 19.5,22 L2.5,22 C1.11928813,22 1.69088438e-16,20.8807119 0,19.5 L0,2.5 L0,2.5 C-1.69088438e-16,1.11928813 1.11928813,2.53632657e-16 2.5,0 L2.5,0 Z M14.5702857,16.325 L14.5702857,16.325 C17.3485714,16.2375 18.4171429,14.425 18.4171429,14.425 C18.4171429,10.4 16.6068571,7.1375 16.6068571,7.1375 C14.7965714,5.7875 13.0742857,5.825 13.0742857,5.825 L12.8982857,6.025 C15.0354286,6.675 16.0285714,7.6125 16.0285714,7.6125 C14.7211429,6.9 13.4388571,6.55 12.2445714,6.4125 C11.3394286,6.3125 10.472,6.3375 9.70514286,6.4375 C9.62971429,6.4375 9.56685714,6.45 9.49142857,6.4625 C9.05142857,6.5 7.98285714,6.6625 6.63771429,7.25 C6.17257143,7.4625 5.896,7.6125 5.896,7.6125 C5.896,7.6125 6.93942857,6.625 9.20228571,5.975 L9.07657143,5.825 C9.07657143,5.825 7.35428571,5.7875 5.544,7.1375 C5.544,7.1375 3.73371429,10.4 3.73371429,14.425 C3.73371429,14.425 4.78971429,16.2375 7.568,16.325 C7.568,16.325 8.03314286,15.7625 8.41028571,15.2875 C6.81371429,14.8125 6.21028571,13.8125 6.21028571,13.8125 C6.21028571,13.8125 6.336,13.9 6.56228571,14.025 C6.57485714,14.0375 6.58742857,14.05 6.61257143,14.0625 C6.65028571,14.0875 6.688,14.1 6.72571429,14.125 C7.04,14.3 7.35428571,14.4375 7.64342857,14.55 C8.15885714,14.75 8.77485714,14.95 9.49142857,15.0875 C10.4342857,15.2625 11.5405714,15.325 12.7474286,15.1 C13.3382857,15 13.9417143,14.825 14.5702857,14.5625 C15.0102857,14.4 15.5005714,14.1625 16.016,13.825 C16.016,13.825 15.3874286,14.85 13.7405714,15.3125 C14.1177143,15.7875 14.5702857,16.325 14.5702857,16.325 Z M8.72457143,10.4875 C9.44114286,10.4875 10.0194286,11.1125 10.0068571,11.875 C10.0068571,12.6375 9.44114286,13.2625 8.72457143,13.2625 C8.02057143,13.2625 7.44228571,12.6375 7.44228571,11.875 C7.44228571,11.1125 8.008,10.4875 8.72457143,10.4875 Z M13.3131429,10.4875 C14.0297143,10.4875 14.5954286,11.1125 14.5954286,11.875 C14.5954286,12.6375 14.0297143,13.2625 13.3131429,13.2625 C12.6091429,13.2625 12.0308571,12.6375 12.0308571,11.875 C12.0308571,11.1125 12.5965714,10.4875 13.3131429,10.4875 Z"/>
</svg>
