<svg xmlns="http://www.w3.org/2000/svg" width="22" height="22" viewBox="0 0 22 22">
  <path fill="#8BC052" d="M18.0628178,5.42118396 C16.4144639,3.33719473 13.8633912,2 11,2 C6.02943725,2 2,6.02943725 2,11 C2,15.9705627 6.02943725,20 11,20 C15.9705627,20 20,15.9705627 20,11 C20,9.63021866 19.6939899,8.3319098 19.1466033,7.16970702 L10.7111737,15.7030163 C10.3213239,16.0973897 9.6850113,16.0992249 9.29289322,15.7071068 L5.29289322,11.7071068 C4.90236893,11.3165825 4.90236893,10.6834175 5.29289322,10.2928932 C5.68341751,9.90236893 6.31658249,9.90236893 6.70710678,10.2928932 L9.99590947,13.5816959 L18.0628178,5.42118396 Z M11,22 C4.92486775,22 0,17.0751322 0,11 C0,4.92486775 4.92486775,0 11,0 C17.0751322,0 22,4.92486775 22,11 C22,17.0751322 17.0751322,22 11,22 Z"/>
</svg>
