<?xml version="1.0" encoding="UTF-8"?>
<svg width="22px" height="22px" viewBox="0 0 22 22" version="1.1" xmlns="http://www.w3.org/2000/svg" xmlns:xlink="http://www.w3.org/1999/xlink">
    <!-- Generator: Sketch 47.1 (45422) - http://www.bohemiancoding.com/sketch -->
    <title>icon-inline-permalink</title>
    <desc>Created with Sketch.</desc>
    <defs></defs>
    <g id="Docs" stroke="none" stroke-width="1" fill="none" fill-rule="evenodd">
        <g id="Docs__Category__Article" transform="translate(-738.000000, -1535.000000)" fill-rule="nonzero" fill="#409D56">
            <g id="Page-Content-Group" transform="translate(478.000000, 64.000000)">
                <g id="icon-inline-permalink" transform="translate(260.000000, 1471.000000)">
                    <path d="M12.2778268,14.25 C11.0545631,14.25 9.87872447,13.7777999 8.99770695,12.9043995 C8.66756224,12.5771091 8.66756224,12.0430624 8.99770695,11.7128533 C9.32664757,11.3867566 9.861604,11.3867566 10.1934781,11.7128533 C11.3430474,12.8524837 13.2146743,12.8524837 14.3642436,11.7128533 L18.6988335,7.41573929 C19.8471987,6.27730261 19.8471987,4.42558337 18.6988335,3.28714669 C17.5492642,2.14751631 15.6776373,2.14751631 14.5280178,3.28719644 L10.8697237,6.91181157 C10.5407831,7.23790824 10.0058267,7.23790824 9.67395261,6.91181157 C9.3438079,6.58452122 9.3438079,6.05047449 9.67400281,5.72021564 L13.3322969,2.09560051 C15.1420957,0.301448766 18.0849235,0.301448766 19.8926438,2.09570689 C21.7021491,3.89173671 21.7028266,6.81276415 19.8925789,8.60519334 L15.5579467,12.9043995 C14.677427,13.7773064 13.4997834,14.25 12.2778268,14.25 Z M5.38807513,21.25 C4.16488296,21.25 2.98911382,20.7777973 2.1081501,19.9043938 C0.297265418,18.1090496 0.297265418,15.1879462 2.10810776,13.3948123 L6.44245994,9.0956062 C8.25214951,7.30144687 11.1948061,7.30144687 13.00231,9.0956062 C13.3324321,9.42289528 13.3324321,9.95693319 13.00231,10.287141 C12.673383,10.6132453 12.1384423,10.6132453 11.8065819,10.287141 C10.6570946,9.14751821 8.78560748,9.14751821 7.63616246,10.287099 L3.30387817,14.584255 C2.1555859,15.722693 2.1555859,17.5744211 3.30387817,18.712859 C4.45336553,19.8524818 6.32485263,19.8524818 7.47434,18.712859 L11.1324479,15.086144 C11.4613749,14.7600397 11.9963156,14.7600397 12.3281759,15.086144 C12.658298,15.4134331 12.658298,15.947471 12.3281258,16.2777285 L8.66800017,19.9043938 C7.78703645,20.7777973 6.61126731,21.25 5.38807513,21.25 Z"></path>
                </g>
            </g>
        </g>
    </g>
</svg>