<svg xmlns="http://www.w3.org/2000/svg" width="20" height="20" viewBox="0 0 20 20">
  <path fill-rule="evenodd" d="M7.42857143,8.372 L9.697,10.388381 C9.77457143,10.4573333 9.88214286,10.5 10,10.5 C10.1182857,10.5 10.2254286,10.4573333 10.303,10.388381 L12.5714286,8.372 L12.5714286,8.372 C12.7201773,8.23977894 12.7335756,8.01200795 12.6013545,7.86325926 C12.5919741,7.85270629 12.5819815,7.84271375 12.5714286,7.83333333 L12.5009559,7.77069097 L12.5009559,7.77069097 C12.3683458,7.65281532 12.1685113,7.65281532 12.0359012,7.77069097 L10.4285714,9.19942857 L10.4285714,2.88095238 C10.4285714,2.67028571 10.237,2.5 10,2.5 C9.763,2.5 9.57142857,2.67028571 9.57142857,2.88095238 L9.57142857,9.19942857 L7.96409877,7.77069097 L7.96409877,7.77069097 C7.83148866,7.65281532 7.63165419,7.65281532 7.49904408,7.77069097 L7.42857143,7.83333333 L7.42857143,7.83333333 C7.27982274,7.96555439 7.26642444,8.19332538 7.3986455,8.34207407 C7.40802592,8.35262704 7.41801846,8.36261958 7.42857143,8.372 Z M13.2438182,5.252075 C13.1966364,5.16325 13.1066364,5.1 13,5.1 L12.4409091,5.1 L12.4409091,5.1 C12.2476094,5.1 12.0909091,5.25670034 12.0909091,5.45 L12.0909091,5.5499939 L12.0909091,5.5499939 C12.0909091,5.74329356 12.2476094,5.8999939 12.4409091,5.8999939 L12.5799866,5.8999939 L15,10.6 L11.9090909,10.6 C11.7582727,10.6 11.6363636,10.722925 11.6363636,10.875 C11.6363636,11.78635 10.9035455,12.525 10,12.525 C9.09645455,12.525 8.36363636,11.78635 8.36363636,10.875 C8.36363636,10.722925 8.24172727,10.6 8.09090909,10.6 L5,10.6 L7.42001343,5.8999939 L7.55909091,5.8999939 L7.55909091,5.8999939 C7.75239057,5.8999939 7.90909091,5.74329356 7.90909091,5.5499939 L7.90909091,5.45 L7.90909091,5.45 C7.90909091,5.25670034 7.75239057,5.1 7.55909091,5.1 L7,5.1 C6.89336364,5.1 6.80336364,5.16325 6.75863636,5.25345 L4.02863636,10.752075 C4.01281818,10.7903 4,10.830725 4,10.875 L4,14.725 C4,14.877075 4.12190909,15 4.27272727,15 L15.7272727,15 C15.8780909,15 16,14.877075 16,14.725 L16,10.875 C16,10.830725 15.9871818,10.7903 15.9686364,10.75345 L13.2438182,5.252075 Z" opacity=".7" style="mix-blend-mode:multiply"/>
</svg>
