<?xml version="1.0" encoding="UTF-8"?>
<svg width="28px" height="28px" viewBox="0 0 28 28" version="1.1" xmlns="http://www.w3.org/2000/svg" xmlns:xlink="http://www.w3.org/1999/xlink">
    <!-- Generator: Sketch 47.1 (45422) - http://www.bohemiancoding.com/sketch -->
    <title>arrow-right-circle--white</title>
    <desc>Created with Sketch.</desc>
    <defs></defs>
    <g id="Symbols" stroke="none" stroke-width="1" fill="none" fill-rule="evenodd">
        <g id="arrow-right-circle--white" fill="#66A86F">
            <path d="M10,13 C9.724,13 9.5,13.224 9.5,13.5 C9.5,13.6385 9.556,13.763 9.6465,13.8535 L13.6465,17.8535 C13.737,17.9445 13.862,18 14,18 C14.1385,18 14.2635,17.9445 14.3535,17.8535 L18.3535,13.8535 C18.444,13.763 18.5,13.6385 18.5,13.5 C18.5,13.224 18.276,13 18,13 C17.862,13 17.737,13.056 17.6465,13.1465 L14.5,16.293 L14.5,3.5 C14.5,3.2235 14.276,3 14,3 C13.724,3 13.5,3.2235 13.5,3.5 L13.5,16.293 L10.3535,13.1465 C10.2635,13.056 10.1385,13 10,13 M16.2135,3.2395 C16.1485,3.2085 16.0775,3.1875 16,3.1875 C15.724,3.1875 15.5,3.4115 15.5,3.6875 C15.5,3.964 15.724,4.1875 16,4.1875 L16,4.2005 C20.5645,5.1275 24,9.162 24,14 C24,19.523 19.523,24 14,24 C8.477,24 4,19.523 4,14 C4,9.162 7.4355,5.1275 12,4.2005 L12,4.1875 C12.276,4.1875 12.5,3.964 12.5,3.6875 C12.5,3.4115 12.276,3.1875 12,3.1875 C11.923,3.1875 11.852,3.2085 11.7865,3.2395 C6.775,4.2655 3,8.6855 3,14 C3,20.0755 7.925,25 14,25 C20.0755,25 25,20.0755 25,14 C25,8.6855 21.225,4.2655 16.2135,3.2395" transform="translate(14.000000, 14.000000) rotate(-90.000000) translate(-14.000000, -14.000000) "></path>
        </g>
    </g>
</svg>