<svg xmlns="http://www.w3.org/2000/svg" width="22" height="22" viewBox="0 0 22 22">
  <path fill="#D07A4E" d="M11,22 C4.92486775,22 0,17.0751322 0,11 C0,4.92486775 4.92486775,0 11,0 C17.0751322,0 22,4.92486775 22,11 C22,17.0751322 17.0751322,22 11,22 Z M11,20 C15.9705627,20 20,15.9705627 20,11 C20,6.02943725 15.9705627,2 11,2 C6.02943725,2 2,6.02943725 2,11 C2,15.9705627 6.02943725,20 11,20 Z M11,5 C11.5522847,5 12,5.44771525 12,6 L12,12 C12,12.5522847 11.5522847,13 11,13 C10.4477153,13 10,12.5522847 10,12 L10,6 C10,5.44771525 10.4477153,5 11,5 Z M11,15 C11.5522847,15 12,15.4477153 12,16 C12,16.5522847 11.5522847,17 11,17 C10.4477153,17 10,16.5522847 10,16 C10,15.4477153 10.4477153,15 11,15 Z"/>
</svg>
