<?xml version="1.0" encoding="UTF-8"?>
<svg width="22px" height="22px" viewBox="0 0 22 22" version="1.1" xmlns="http://www.w3.org/2000/svg" xmlns:xlink="http://www.w3.org/1999/xlink">
    <!-- Generator: Sketch 47.1 (45422) - http://www.bohemiancoding.com/sketch -->
    <title>icon-search</title>
    <desc>Created with Sketch.</desc>
    <defs></defs>
    <g id="Symbols" stroke="none" stroke-width="1" fill="none" fill-rule="evenodd">
        <g id="Search-Bar-Group" transform="translate(-21.000000, -9.000000)" fill="#000000">
            <g id="Search-label-group">
                <g transform="translate(21.000000, 9.000000)">
                    <g id="icon-search">
                        <path d="M21.8535,21.147 L16.554,15.847 C18.07,14.164 19,11.9435 19,9.5 C19,4.2535 14.747,0 9.5,0 C4.2535,0 0,4.2535 0,9.5 C0,14.747 4.2535,19 9.5,19 C11.9435,19 14.164,18.07 15.847,16.554 L21.1465,21.8535 C21.237,21.9445 21.362,22 21.5,22 C21.7765,22 22,21.777 22,21.5 C22,21.363 21.9445,21.238 21.8535,21.147 M9.5,18.0005 C4.8055,18.0005 1,14.195 1,9.5 C1,4.8055 4.8055,1 9.5,1 C14.1945,1 18,4.8055 18,9.5 C18,14.195 14.1945,18.0005 9.5,18.0005"></path>
                    </g>
                </g>
            </g>
        </g>
    </g>
</svg>