<svg xmlns="http://www.w3.org/2000/svg" width="20" height="20" viewBox="0 0 20 20">
  <path fill-rule="evenodd" d="M10,6 C11.3604,6 12.5604,6.68247206 13.2832,7.72262042 L11.1572,8.90712245 C10.8656,8.59996993 10.4564,8.40589444 10,8.40589444 C9.5436,8.40589444 9.1344,8.59996993 8.8428,8.90712245 L6.7168,7.72262042 C7.4396,6.68247206 8.6396,6 10,6 Z M9.6,14 C7.5788,13.7987068 6,12.0893188 6,10.0098241 C6,9.4460428 6.1172,8.90992933 6.3268,8.42313668 L8.4568,9.60924264 C8.4236,9.73835898 8.4,9.87108416 8.4,10.0098241 C8.4,10.7568543 8.9108,11.378377 9.6,11.5572152 L9.6,14 Z M14,10.0098241 C14,12.0893188 12.4212,13.7987068 10.4,14 L10.4,11.5572152 C11.0892,11.378377 11.6,10.7568543 11.6,10.0098241 C11.6,9.87108416 11.5764,9.73835898 11.5432,9.60924264 L13.6732,8.42313668 C13.8828,8.90992933 14,9.4460428 14,10.0098241 Z M9.45454545,10 C9.45454545,9.69890909 9.69890909,9.45454545 10,9.45454545 C10.3010909,9.45454545 10.5454545,9.69890909 10.5454545,10 C10.5454545,10.3013636 10.3010909,10.5454545 10,10.5454545 C9.69890909,10.5454545 9.45454545,10.3013636 9.45454545,10 Z M16.5332273,8.60031818 C16.762,8.65854545 17,8.80904545 17,9.06709091 L17,10.9338636 C17,11.1912727 16.762,11.3271364 16.5332273,11.4003182 L15.8596364,11.5689545 C15.7205909,12.0875909 15.5147273,12.5785455 15.2512727,13.0325909 L15.6098636,13.6298182 C15.7301364,13.8328182 15.7918636,14.1074091 15.6098636,14.2900455 L14.2897273,15.6098636 C14.2092273,15.6900455 14.1131364,15.7212273 14.0119545,15.7212273 C13.8843636,15.7212273 13.7491364,15.6712727 13.6298182,15.6098636 L13.0287727,15.2493636 C12.5763182,15.5109091 12.0869545,15.7158182 11.5699091,15.8542273 L11.4,16.5335455 C11.3271364,16.762 11.1909545,17 10.9335455,17 L9.06645455,17 C8.80904545,17 8.65822727,16.762 8.6,16.5335455 L8.43009091,15.8542273 C7.91304545,15.7158182 7.42368182,15.5109091 6.97122727,15.2493636 L6.37018182,15.6098636 C6.25086364,15.6712727 6.11595455,15.7212273 5.98804545,15.7212273 C5.88686364,15.7212273 5.79013636,15.6900455 5.71027273,15.6098636 L4.39013636,14.2900455 C4.20813636,14.1074091 4.26986364,13.8328182 4.39013636,13.6298182 L4.74872727,13.0325909 C4.48527273,12.5785455 4.27877273,12.0875909 4.14036364,11.5689545 L3.46677273,11.4003182 C3.238,11.3271364 3,11.1912727 3,10.9338636 L3,9.06709091 C3,8.80904545 3.238,8.65854545 3.46677273,8.60031818 L4.14036364,8.43168182 C4.27877273,7.91304545 4.48527273,7.42177273 4.74872727,6.96772727 L4.39013636,6.3705 C4.28004545,6.157 4.20813636,5.89259091 4.39013636,5.71059091 L5.71027273,4.39045455 C5.79204545,4.30836364 5.89322727,4.27590909 5.99790909,4.27590909 C6.1255,4.27590909 6.25881818,4.32427273 6.37018182,4.39045455 L6.97122727,4.75095455 C7.42368182,4.48940909 7.91304545,4.28481818 8.43009091,4.14609091 L8.6,3.46677273 C8.65822727,3.238 8.80904545,3 9.06645455,3 L10.9335455,3 C11.1909545,3 11.3271364,3.238 11.4,3.46677273 L11.5699091,4.14609091 C12.0869545,4.28481818 12.5763182,4.48940909 13.0287727,4.75095455 L13.6298182,4.39045455 C13.7411818,4.32427273 13.8745,4.27590909 14.0020909,4.27590909 C14.1067727,4.27590909 14.2079545,4.30836364 14.2897273,4.39045455 L15.6098636,5.71059091 C15.7918636,5.89259091 15.7199545,6.157 15.6098636,6.3705 L15.2512727,6.96772727 C15.5147273,7.42177273 15.7205909,7.91304545 15.8596364,8.43168182 L16.5332273,8.60031818 Z M13.0381342,5.91142111 L12.5283126,5.61671411 C12.1474845,5.39657299 11.7388202,5.22678008 11.310767,5.11193012 L10.7425447,4.95947171 L10.5997933,4.38873345 L10.50386,4 L9.49743556,4 L9.25745528,4.95947171 L8.689233,5.11193012 C8.26117981,5.22678008 7.8525155,5.39657299 7.47168744,5.61671411 L6.96186583,5.91142111 L6.45686505,5.60852758 L6.1127906,5.40215024 L5.40193802,6.11300281 L5.90991801,6.95903515 L5.61366901,7.46959956 C5.39122339,7.852969 5.22044783,8.26273699 5.10654937,8.68952893 L4.95465885,9.25868192 L4.3832227,9.4017434 L4,9.49768032 L4,10.5029515 L4.95465885,10.7419544 L5.10654937,11.3111074 C5.22038028,11.7376463 5.39108458,12.1471099 5.61366901,12.5307186 L5.90991801,13.041283 L5.60605895,13.5473553 L5.40183873,13.8874616 L6.11273974,14.5981929 L6.96186583,14.0888971 L7.47168744,14.3836041 C7.85320899,14.6041461 8.26174669,14.7739531 8.68867842,14.8882394 L9.2573615,15.0404715 L9.40020667,15.6115847 L9.49735004,16 L10.502644,16 L10.7426385,15.0404715 L11.3113216,14.8882394 C11.7382533,14.7739531 12.146791,14.6041461 12.5283126,14.3836041 L13.0381342,14.0888971 L13.543135,14.3917906 L13.88629,14.5991611 L14.5981545,13.8874695 L14.090082,13.041283 L14.386331,12.5307186 C14.608116,12.1484876 14.7787973,11.7387593 14.8937465,11.3100013 L15.046089,10.7417672 L15.6167773,10.598893 L16,10.5042856 L16,9.49768484 L15.046089,9.25886915 L14.8937465,8.69063511 C14.7787286,8.26162102 14.607978,7.8515927 14.386331,7.46959956 L14.090082,6.95903515 L14.3939411,6.45296286 L14.5990165,6.11395677 L13.8872141,5.40215292 L13.0381342,5.91142111 Z" opacity=".7" style="mix-blend-mode:multiply"/>
</svg>
