<?xml version="1.0" encoding="UTF-8"?>
<svg width="46px" height="46px" viewBox="0 0 46 46" version="1.1" xmlns="http://www.w3.org/2000/svg" xmlns:xlink="http://www.w3.org/1999/xlink">
    <!-- Generator: Sketch 47.1 (45422) - http://www.bohemiancoding.com/sketch -->
    <title>icon--expand-nav-menu</title>
    <desc>Created with Sketch.</desc>
    <defs>
        <linearGradient x1="50%" y1="0%" x2="50%" y2="100%" id="linearGradient-1">
            <stop stop-color="#4D5DA0" offset="0%"></stop>
            <stop stop-color="#4B418F" offset="100%"></stop>
        </linearGradient>
    </defs>
    <g id="Symbols" stroke="none" stroke-width="1" fill="none" fill-rule="evenodd">
        <g id="Nav-Group" transform="translate(-361.000000, -9.000000)">
            <g id="icon--expand-nav-menu">
                <g transform="translate(361.000000, 9.000000)">
                    <g>
                        <rect id="background" fill="url(#linearGradient-1)" transform="translate(23.000000, 23.000000) rotate(45.000000) translate(-23.000000, -23.000000) " x="7" y="7" width="32" height="32" rx="11"></rect>
                        <g id="icon--hamburger" transform="translate(14.000000, 16.000000)" fill="#FFFFFF">
                            <g id="Combined-Shape">
                                <path d="M1,0 L17,0 C17.5522847,-1.01453063e-16 18,0.44771525 18,1 L18,1 C18,1.55228475 17.5522847,2 17,2 L1,2 C0.44771525,2 6.76353751e-17,1.55228475 0,1 L0,1 L0,1 C-6.76353751e-17,0.44771525 0.44771525,1.01453063e-16 1,0 L1,0 Z M1,6 L17,6 C17.5522847,6 18,6.44771525 18,7 C18,7.55228475 17.5522847,8 17,8 L1,8 C0.44771525,8 6.76353751e-17,7.55228475 0,7 C-6.76353751e-17,6.44771525 0.44771525,6 1,6 L1,6 Z M1,12 L17,12 C17.5522847,12 18,12.4477153 18,13 C18,13.5522847 17.5522847,14 17,14 L1,14 C0.44771525,14 6.76353751e-17,13.5522847 0,13 C-6.76353751e-17,12.4477153 0.44771525,12 1,12 L1,12 Z"></path>
                            </g>
                        </g>
                    </g>
                </g>
            </g>
        </g>
    </g>
</svg>