<svg xmlns="http://www.w3.org/2000/svg" width="20" height="20" viewBox="0 0 20 20">
  <path fill-rule="evenodd" d="M13.9740776,7.35965909 L13.9740776,4.35227273 C13.9740776,4.19545455 13.8468048,4.06818182 13.6899866,4.06818182 L11.9854412,4.06818182 C11.828623,4.06818182 11.7013503,4.19545455 11.7013503,4.35227273 L11.7013503,5.08721591 L10.1976571,3.58352273 C10.1462366,3.53181818 10.0752139,3.5 9.99680482,3.5 C9.91839573,3.5 9.847373,3.53181818 9.79595255,3.58352273 L4.03645852,9.34301675 L4.03645852,9.34301675 C3.90892101,9.47055427 3.85995761,9.65689567 3.90832594,9.83065453 L4.1169163,10.5799965 L4.1169163,10.5799965 C4.15394268,10.7130104 4.29178757,10.7908236 4.42480148,10.7537973 C4.46628691,10.7422492 4.50408603,10.7201809 4.53453598,10.689731 L5.45135028,9.77291667 L5.45135028,15.7159091 C5.45135028,15.8732955 5.578623,16 5.73544119,16 L14.2581685,16 C14.4149866,16 14.5422594,15.8732955 14.5422594,15.7159091 L14.5422594,9.77291667 L15.4590737,10.689731 L15.4590737,10.689731 C15.5567047,10.787362 15.714996,10.787362 15.8126271,10.689731 C15.843077,10.659281 15.8651453,10.6214819 15.8766933,10.5799965 L16.0852895,9.83063358 L16.0852895,9.83063358 C16.1336548,9.6568859 16.0847009,9.47055632 15.9571799,9.34301874 L13.9740776,7.35965909 Z M8.34055864,10.3645795 L11.6530587,10.3645795 L11.6530587,14.9985081 L8.34055864,14.9985081 L8.34055864,10.3645795 Z" opacity=".7" style="mix-blend-mode:multiply"/>
</svg>
