<?xml version="1.0" encoding="UTF-8"?>
<svg width="20px" height="20px" viewBox="0 0 20 20" version="1.1" xmlns="http://www.w3.org/2000/svg" xmlns:xlink="http://www.w3.org/1999/xlink">
    <!-- Generator: Sketch 47.1 (45422) - http://www.bohemiancoding.com/sketch -->
    <title>category-home-active</title>
    <desc>Created with Sketch.</desc>
    <defs>
        <linearGradient x1="-2.22044605e-14%" y1="1.15507275e-14%" x2="97.9811065%" y2="97.9811065%" id="linearGradient-1">
            <stop stop-color="#66A86F" offset="0%"></stop>
            <stop stop-color="#8BC052" stop-opacity="0.6" offset="100%"></stop>
        </linearGradient>
        <circle id="path-2" cx="10" cy="10" r="10"></circle>
        <filter x="-5.0%" y="-5.0%" width="110.0%" height="110.0%" filterUnits="objectBoundingBox" id="filter-3">
            <feGaussianBlur stdDeviation="1" in="SourceAlpha" result="shadowBlurInner1"></feGaussianBlur>
            <feOffset dx="0" dy="0" in="shadowBlurInner1" result="shadowOffsetInner1"></feOffset>
            <feComposite in="shadowOffsetInner1" in2="SourceAlpha" operator="arithmetic" k2="-1" k3="1" result="shadowInnerInner1"></feComposite>
            <feColorMatrix values="0 0 0 0 0   0 0 0 0 0   0 0 0 0 0  0 0 0 0.25 0" type="matrix" in="shadowInnerInner1"></feColorMatrix>
        </filter>
    </defs>
    <g id="Page-1" stroke="none" stroke-width="1" fill="none" fill-rule="evenodd">
        <g id="Docs__Home" transform="translate(-275.000000, -162.000000)">
            <g id="Sidebar-Group">
                <g id="Categories-Group" transform="translate(275.000000, 162.000000)">
                    <g id="Category-Group">
                        <g id="category-home-active">
                            <g id="Oval-2">
                                <use fill="url(#linearGradient-1)" fill-rule="evenodd" xlink:href="#path-2"></use>
                                <use fill="black" fill-opacity="1" filter="url(#filter-3)" xlink:href="#path-2"></use>
                            </g>
                            <path d="M13.977273,7.10965909 L13.977273,4.10227273 C13.977273,3.94545455 13.8500003,3.81818182 13.6931821,3.81818182 L11.9886367,3.81818182 C11.8318185,3.81818182 11.7045458,3.94545455 11.7045458,4.10227273 L11.7045458,4.83721591 L10.2008526,3.33352273 C10.1494321,3.28181818 10.0784094,3.25 10.0000003,3.25 C9.92159122,3.25 9.85056849,3.28181818 9.79914804,3.33352273 L4.03965401,9.09301675 L4.03965401,9.09301675 C3.9121165,9.22055427 3.86315309,9.40689567 3.91152143,9.58065453 L4.12011179,10.3299965 L4.12011179,10.3299965 C4.15713817,10.4630104 4.29498306,10.5408236 4.42799697,10.5037973 C4.4694824,10.4922492 4.50728152,10.4701809 4.53773147,10.439731 L5.45454577,9.52291667 L5.45454577,15.4659091 C5.45454577,15.6232955 5.58181849,15.75 5.73863668,15.75 L14.2613639,15.75 C14.4181821,15.75 14.5454549,15.6232955 14.5454549,15.4659091 L14.5454549,9.52291667 L15.4622692,10.439731 L15.4622692,10.439731 C15.5599002,10.537362 15.7181915,10.537362 15.8158225,10.439731 C15.8462725,10.409281 15.8683408,10.3714819 15.8798888,10.3299965 L16.088485,9.58063358 L16.088485,9.58063358 C16.1368502,9.4068859 16.0878964,9.22055632 15.9603754,9.09301874 L13.977273,7.10965909 Z M8.34375413,10.1145795 L11.6562542,10.1145795 L11.6562542,14.7485081 L8.34375413,14.7485081 L8.34375413,10.1145795 Z" id="house" fill-opacity="0.7" fill="#000000" style="mix-blend-mode: multiply;"></path>
                        </g>
                    </g>
                </g>
            </g>
        </g>
    </g>
</svg>