<?xml version="1.0" encoding="UTF-8"?>
<svg width="202px" height="55px" viewBox="0 0 202 55" version="1.1" xmlns="http://www.w3.org/2000/svg" xmlns:xlink="http://www.w3.org/1999/xlink">
    <!-- Generator: Sketch 47.1 (45422) - http://www.bohemiancoding.com/sketch -->
    <title>logo-horizontal-docs</title>
    <desc>Created with Sketch.</desc>
    <defs>
        <linearGradient x1="-7.63302183e-15%" y1="49.984%" x2="100%" y2="49.984%" id="linearGradient-1">
            <stop stop-color="#CB1C81" offset="0%"></stop>
            <stop stop-color="#9A2985" offset="64%"></stop>
            <stop stop-color="#712D86" offset="100%"></stop>
        </linearGradient>
        <linearGradient x1="8.69031323e-05%" y1="49.9859353%" x2="100%" y2="49.9859353%" id="linearGradient-2">
            <stop stop-color="#6A2B80" offset="0%"></stop>
            <stop stop-color="#532D86" offset="33%"></stop>
            <stop stop-color="#464E9B" offset="68%"></stop>
            <stop stop-color="#199BD1" offset="100%"></stop>
        </linearGradient>
        <linearGradient x1="0%" y1="50%" x2="100%" y2="50%" id="linearGradient-3">
            <stop stop-color="#1FAE8F" offset="0%"></stop>
            <stop stop-color="#26AF8B" offset="5%"></stop>
            <stop stop-color="#5CB46F" offset="44%"></stop>
            <stop stop-color="#88BF4C" offset="100%"></stop>
        </linearGradient>
        <linearGradient x1="0%" y1="50%" x2="100%" y2="50%" id="linearGradient-4">
            <stop stop-color="#00AABB" offset="0%"></stop>
            <stop stop-color="#00ADAB" offset="45%"></stop>
            <stop stop-color="#30B091" offset="100%"></stop>
        </linearGradient>
        <linearGradient x1="0%" y1="49.9552266%" x2="100.028482%" y2="49.9552266%" id="linearGradient-5">
            <stop stop-color="#37AC6B" offset="0%"></stop>
            <stop stop-color="#61B251" offset="47%"></stop>
            <stop stop-color="#8EC03E" offset="100%"></stop>
        </linearGradient>
        <linearGradient x1="0%" y1="50%" x2="100%" y2="50%" id="linearGradient-6">
            <stop stop-color="#84BF6C" offset="0%"></stop>
            <stop stop-color="#BBCF49" offset="49%"></stop>
            <stop stop-color="#EAE22A" offset="100%"></stop>
        </linearGradient>
        <linearGradient x1="0.0445035303%" y1="49.9865193%" x2="99.9994326%" y2="49.9865193%" id="linearGradient-7">
            <stop stop-color="#BEBC31" offset="0%"></stop>
            <stop stop-color="#DFD61F" offset="47%"></stop>
            <stop stop-color="#FCE900" offset="100%"></stop>
        </linearGradient>
        <linearGradient x1="0%" y1="49.9974341%" x2="100%" y2="49.9974341%" id="linearGradient-8">
            <stop stop-color="#DE0B80" offset="0%"></stop>
            <stop stop-color="#E95B4D" offset="50%"></stop>
            <stop stop-color="#FDCE07" offset="100%"></stop>
        </linearGradient>
    </defs>
    <g id="Symbols" stroke="none" stroke-width="1" fill="none" fill-rule="evenodd">
        <g id="logo-horizontal-docs">
            <g id="mark" transform="translate(0.000000, 7.000000)" fill-rule="nonzero">
                <g id="Layer_9" transform="translate(1.286908, 5.621622)" fill="url(#linearGradient-1)">
                    <path d="M0.265961003,5.77297297 L7.95309192,13.5567568 L12.7275209,8.8 L4.10952646,0.0432432432 C2.48569942,1.69894639 1.17711277,3.64102963 0.248802228,5.77297297" id="Shape"></path>
                </g>
                <g id="Layer_8" transform="translate(0.000000, 11.243243)" fill="url(#linearGradient-2)">
                    <path d="M3.38813179e-21,7.68864865 C-0.00245420143,10.3936347 0.572508467,13.0674837 1.68584958,15.5286486 L9.23571031,7.93945946 L1.54857939,0.155675676 C0.524764262,2.53284081 -0.00238043109,5.09710504 -2.07835797e-15,7.68864865" id="Shape"></path>
                </g>
                <g id="Layer_6" transform="translate(6.863510, 33.297297)" fill="url(#linearGradient-3)">
                    <path d="M0.120111421,0.35027027 L12.0626184,14.4562162 L12.2170474,14.4562162 L11.7151532,4.32432432 C9.05554318,4.3027027 6.52891365,1.96756757 4.24250696,0.934054054 L4.24250696,0.934054054 C3.6165648,0.693415427 2.93776748,0.627677001 2.2778273,0.743783784 C1.52284123,0.834594595 0.802172702,0.903783784 0.120111421,0.35027027 Z" id="Shape"></path>
                </g>
                <g id="Layer_7" transform="translate(1.286908, 19.027027)" fill="url(#linearGradient-4)">
                    <path d="M0.398941504,7.74486486 C2.30329526,11.9402618 5.65810757,15.2929502 9.83626741,17.1762162 L17.2917549,9.60432432 L7.95309192,0.147027027 L0.398941504,7.74486486 Z" id="Shape"></path>
                </g>
                <g id="Layer_5" transform="translate(10.724234, 28.540541)" fill="url(#linearGradient-5)">
                    <path d="M0.38178273,7.65405405 C5.16511347,9.81000862 10.6237189,9.85702662 15.4428969,7.78378378 L7.84584958,0.0778378378 L0.38178273,7.65405405 Z" id="Shape"></path>
                </g>
                <g id="Layer_4" transform="translate(18.445682, 19.027027)" fill="url(#linearGradient-6)">
                    <path d="M0.120111421,9.59567568 L7.72144847,17.2972973 C11.9228171,15.4707636 15.3203923,12.1641284 17.2788858,7.99567568 L9.43732591,0.0432432432 L0.120111421,9.59567568 Z" id="Shape"></path>
                </g>
                <g id="Layer_3" transform="translate(27.883008, 10.810811)" fill="url(#linearGradient-7)">
                    <path d="M0,8.24648649 L7.84155989,16.1989189 C9.02154753,13.6719245 9.63519786,10.9140417 9.6389415,8.12108108 C9.64555407,5.37111048 9.052451,2.65328902 7.9016156,0.16 L0,8.24648649 Z" id="Shape"></path>
                </g>
                <g id="Layer_2" transform="translate(10.724234, 0.000000)" fill="url(#linearGradient-8)">
                    <path d="M0.10724234,1.79027027 L17.1587744,19.0572973 L25.0518106,10.9708108 C22.9535092,6.41924445 19.1474275,2.89444935 14.4709553,1.17192829 C9.79448296,-0.550592779 4.63074065,-0.329722038 0.115821727,1.78594595 L0.115821727,1.78594595" id="Shape"></path>
                </g>
            </g>
            <path d="M167.255622,35 C166.431735,35 165.700878,34.820593 165.06303,34.4617737 C164.425182,34.1029544 163.921887,33.530483 163.553131,32.7443425 C163.184375,31.958202 163,30.951892 163,29.7253823 C163,27.8269018 163.460108,26.4030629 164.380336,25.4538226 C165.300565,24.5045824 166.660955,24.0299694 168.461548,24.0299694 C168.979799,24.0299694 169.564485,24.0788986 170.215621,24.1767584 L170.215621,19 L171.810234,19 L171.810234,34.8140673 L170.444847,34.8140673 L170.335217,33.6593272 L170.235554,33.6593272 C169.896697,34.0703384 169.471472,34.3965329 168.959864,34.6379205 C168.448257,34.879308 167.880182,35 167.255622,35 Z M167.624376,33.6495413 C168.129339,33.6495413 168.61104,33.5402661 169.069494,33.3217125 C169.527947,33.1031589 169.909986,32.7753335 170.215621,32.3382263 L170.215621,25.4978593 C169.96314,25.4456674 169.677441,25.4016312 169.358517,25.3657492 C169.039593,25.3298673 168.73064,25.3119266 168.431649,25.3119266 C167.149308,25.3119266 166.194211,25.6495379 165.566329,26.3247706 C164.938448,27.0000034 164.624511,28.0846001 164.624511,29.5785933 C164.624511,31.0595385 164.885294,32.1082538 165.406868,32.7247706 C165.928442,33.3412875 166.667604,33.6495413 167.624376,33.6495413 Z M179.066307,35 C177.61786,35 176.490015,34.5514826 175.682739,33.6544343 C174.875462,32.7573859 174.47183,31.3792142 174.47183,29.5198777 C174.47183,27.6605412 174.873801,26.2807384 175.677755,25.3804281 C176.48171,24.4801178 177.611216,24.0299694 179.066307,24.0299694 C180.528042,24.0299694 181.66087,24.4768559 182.464825,25.3706422 C183.268779,26.2644285 183.67075,27.6442312 183.67075,29.5100917 C183.67075,31.3629043 183.265457,32.741076 182.454858,33.6446483 C181.64426,34.5482206 180.514754,35 179.066307,35 Z M179.066307,33.7278287 C180.036368,33.7278287 180.773869,33.4065272 181.278832,32.7639144 C181.783795,32.1213016 182.036273,31.0464907 182.036273,29.5394495 C182.036273,28.0063124 181.783795,26.9184538 181.278832,26.275841 C180.773869,25.6332282 180.036368,25.3119266 179.066307,25.3119266 C178.10289,25.3119266 177.367051,25.6315972 176.858765,26.270948 C176.35048,26.9102988 176.096341,27.9834787 176.096341,29.4905199 C176.096341,31.017133 176.348819,32.1049917 176.853782,32.7541284 C177.358745,33.4032652 178.096246,33.7278287 179.066307,33.7278287 Z M190.607901,35 C189.039857,35 187.850554,34.5563755 187.039956,33.6691131 C186.229357,32.7818508 185.824063,31.3955242 185.824063,29.5100917 C185.824063,27.6246593 186.260917,26.2399636 187.134636,25.3559633 C188.008355,24.471963 189.298981,24.0299694 191.006554,24.0299694 C191.810509,24.0299694 192.551331,24.1213039 193.229045,24.3039755 L193.229045,25.6348624 C192.51811,25.4587147 191.837085,25.3706422 191.185948,25.3706422 C190.335484,25.3706422 189.639509,25.5043819 189.098002,25.7718654 C188.556496,26.0393489 188.151202,26.4731876 187.88211,27.0733945 C187.613018,27.6736014 187.478474,28.4727779 187.478474,29.470948 C187.478474,30.4821661 187.603052,31.2960214 187.852211,31.9125382 C188.101371,32.5290551 188.471782,32.9759415 188.963457,33.253211 C189.455131,33.5304805 190.079682,33.6691131 190.837126,33.6691131 C191.534773,33.6691131 192.332071,33.5223256 193.229045,33.2287462 L193.229045,34.559633 C192.385225,34.8532125 191.511519,35 190.607901,35 Z M197.79421,35 C196.697908,35 195.697963,34.8564744 194.794345,34.569419 L194.794345,33.3070336 C195.784338,33.6006131 196.784283,33.7474006 197.79421,33.7474006 C199.574869,33.7474006 200.465185,33.1537266 200.465185,31.9663609 C200.465185,31.4835858 200.337286,31.114986 200.081482,30.8605505 C199.825678,30.6061149 199.398791,30.4136602 198.800809,30.2831804 L197.335759,29.9896024 C196.372342,29.7873588 195.674706,29.4513785 195.24283,28.9816514 C194.810953,28.5119243 194.595018,27.8856308 194.595018,27.1027523 C194.595018,26.4960214 194.751156,25.9610625 195.063436,25.4978593 C195.375716,25.0346562 195.852434,24.6742113 196.493604,24.4165138 C197.134774,24.1588162 197.927089,24.0299694 198.870573,24.0299694 C199.74097,24.0299694 200.591421,24.1343517 201.421953,24.3431193 L201.421953,25.6152905 C200.983432,25.4978587 200.564851,25.4130482 200.166196,25.3608563 C199.767541,25.3086644 199.348959,25.2825688 198.910438,25.2825688 C197.933733,25.2825688 197.22447,25.4440351 196.782627,25.7669725 C196.340785,26.0899099 196.119867,26.5221176 196.119867,27.0636086 C196.119867,27.5007157 196.242783,27.8530058 196.488621,28.1204893 C196.734458,28.3879728 197.149717,28.5836895 197.734412,28.7076453 L199.199462,29.0012232 C200.182811,29.2034669 200.895396,29.5361852 201.337239,29.9993884 C201.779082,30.4625915 202,31.0921469 202,31.8880734 C202,32.8666716 201.637894,33.6299667 200.91367,34.1779817 C200.189447,34.7259966 199.149637,35 197.79421,35 Z" id="docs.panoply" fill="#8BC052"></path>
            <g id="Layer_1" transform="translate(50.000000, 13.000000)" fill-rule="nonzero" fill="#000000">
                <path d="M6.6962117,22.9189189 C5.03766297,22.9460599 3.4720431,22.148845 2.50947075,20.787027 L2.50947075,28.6227027 L0.330306407,28.6227027 L0.330306407,11.7578378 C0.33162919,10.2119418 0.231316515,8.66765674 0.0300278552,7.13513514 L1.9389415,7.13513514 L2.4751532,9.47027027 C3.20869081,8.29405405 4.81732591,6.77621622 6.72623955,6.77621622 C11.3762674,6.77621622 12.851922,10.5556757 12.851922,14.9448649 C12.851922,19.2691892 10.9430084,22.9448649 6.69192201,22.9448649 M6.28869081,8.4972973 C4.44412256,8.4972973 3.00707521,10.2486486 2.4751532,11.7664865 L2.4751532,18.892973 C3.24729805,19.9351351 4.19103064,21.2194595 6.5589415,21.2194595 C8.92685237,21.2194595 10.5740947,19.3945946 10.5740947,14.8713514 C10.5740947,10.8886486 9.40300836,8.4972973 6.28440111,8.4972973" id="Shape"></path>
                <path d="M26.4159331,22.572973 C26.3816156,22.3351351 25.8797214,21.0854054 25.8454039,20.7481081 C24.8431431,22.1260551 23.2506924,22.9415509 21.5557103,22.9448649 C18.4757103,22.9448649 15.9791086,21.6259459 15.9791086,18.5210811 C15.9791086,15.4162162 17.6949861,13.1848649 24.1810028,13.1848649 L25.6566574,13.1848649 L25.6566574,12.0043243 C25.6566574,9.94594595 24.9531476,8.4972973 22.6109749,8.4972973 C20.7881736,8.52529844 18.997801,8.98761847 17.3861281,9.84648649 L16.6311421,7.95675676 C18.5423282,7.18821026 20.5791253,6.78636182 22.6367131,6.77189189 C25.7853482,6.77189189 27.8572702,8.35459459 27.8572702,11.7318919 L27.8572702,17.8378378 C27.8572702,19.052973 28.1318106,20.6745946 28.3291365,22.5686486 L26.4159331,22.572973 Z M25.7381616,14.8410811 L24.7000557,14.8410811 C19.8741504,14.8410811 18.3384401,15.9524324 18.3384401,18.4518919 C18.3384401,20.1816216 19.6253482,21.2194595 21.8216713,21.2194595 C23.5976045,21.2194595 25.0346518,20.4064865 25.7424513,19.1610811 L25.7381616,14.8410811 Z" id="Shape"></path>
                <path d="M42.9913092,22.572973 L42.9913092,12.972973 C42.9913092,10.6075676 42.588078,8.48432432 39.6110306,8.48432432 C37.5991643,8.48432432 36.1792758,10.3394595 35.6602228,11.7535135 L35.6602228,22.5643243 L33.4853482,22.5643243 L33.4853482,10.4172973 C33.4853482,9.12 33.2837326,8.35891892 33.1850696,7.14378378 L35.0768245,7.14378378 L35.5486908,9.44 C36.1492479,8.73081081 37.4876323,6.77189189 39.8984401,6.77189189 C43.9865181,6.77189189 45.1576045,9.30162162 45.1576045,12.8259459 L45.1576045,22.547027 L42.9913092,22.572973 Z" id="Shape"></path>
                <path d="M55.8518106,22.9189189 C50.764234,22.9189189 49.0869638,19.2345946 49.0869638,14.7459459 C49.0869638,10.4994595 50.764234,6.75027027 55.8518106,6.75027027 C60.9393872,6.75027027 62.5823398,10.2962162 62.5823398,14.7459459 C62.5823398,19.1956757 60.9393872,22.9189189 55.8518106,22.9189189 M55.8518106,8.47135135 C52.6345404,8.47135135 51.3647911,10.9664865 51.3647911,14.7459459 C51.3647911,18.4302703 52.4071866,21.1935135 55.8518106,21.1935135 C59.2964345,21.1935135 60.3045125,18.5254054 60.3045125,14.7459459 C60.3045125,10.9664865 59.2664067,8.47567568 55.8518106,8.47567568" id="Shape"></path>
                <path d="M73.5296379,22.9189189 C71.8704349,22.9437498 70.3045245,22.147203 69.3386072,20.787027 L69.3386072,28.6227027 L67.1680223,28.6227027 L67.1680223,11.7578378 C67.1684971,10.2119695 67.0681881,8.66774074 66.8677437,7.13513514 L68.7723677,7.13513514 L69.3085794,9.46162162 C70.042117,8.28540541 71.6507521,6.76756757 73.5596657,6.76756757 C78.2096936,6.76756757 79.6896379,10.547027 79.6896379,14.9362162 C79.6896379,19.2605405 77.7807242,22.9362162 73.5296379,22.9362162 M73.1264067,8.48864865 C71.2861281,8.48864865 69.8490808,10.24 69.3128691,11.7578378 L69.3128691,18.8843243 C70.0850139,19.9264865 71.0287465,21.2108108 73.4009471,21.2108108 C75.7731476,21.2108108 77.4161003,19.3859459 77.4161003,14.8627027 C77.4161003,10.88 76.2450139,8.48864865 73.1264067,8.48864865" id="Shape"></path>
                <rect id="Rectangle-path" x="83.6104178" y="0.397837838" width="2.17487465" height="22.1751351"></rect>
                <path d="M97.3331476,25.0335135 C96.4752089,27.4248649 95.424234,28.64 92.6788301,29.6216216 L91.97961,27.6756757 C93.8241783,27.1697297 94.5877437,26.3783784 94.9266295,25.4832432 L96.2693036,21.907027 L90.1350418,7.12216216 L92.4857939,7.12216216 L97.3760446,19.372973 L101.524178,7.12648649 L103.716212,7.12648649 L97.3331476,25.0335135 Z" id="Shape"></path>
            </g>
        </g>
    </g>
</svg>