<svg xmlns="http://www.w3.org/2000/svg" width="146" height="47" viewBox="0 0 146 47">
  <defs>
    <linearGradient id="logo--white-a" x1="100%" x2="0%" y1="50%" y2="50%">
      <stop offset="0%" stop-color="#45CCB0"/>
      <stop offset="63.629%" stop-color="#B1E1A4"/>
      <stop offset="100%" stop-color="#EFDBCC"/>
    </linearGradient>
    <linearGradient id="logo--white-b" x1="0%" y1="50%" y2="50%">
      <stop offset="0%" stop-color="#FD9983"/>
      <stop offset="37.407%" stop-color="#FC8A7B"/>
      <stop offset="100%" stop-color="#F42248"/>
    </linearGradient>
  </defs>
  <g fill="none" fill-rule="evenodd" transform="translate(2 2)">
    <path fill="#FFF" d="M85.756,19.136 L84.172,19.694 C84.028,18.776 83.254,17.516 81.472,17.516 C80.032,17.516 79.006,18.452 79.006,19.64 C79.006,20.558 79.564,21.26 80.644,21.494 L82.552,21.908 C84.676,22.376 85.864,23.708 85.864,25.49 C85.864,27.47 84.172,29.27 81.454,29.27 C78.376,29.27 76.918,27.29 76.684,25.472 L78.376,24.932 C78.502,26.354 79.51,27.668 81.436,27.668 C83.2,27.668 84.064,26.75 84.064,25.634 C84.064,24.716 83.434,23.924 82.156,23.654 L80.338,23.258 C78.52,22.862 77.224,21.674 77.224,19.766 C77.224,17.768 79.078,15.968 81.436,15.968 C84.316,15.968 85.468,17.75 85.756,19.136 Z M89.806,23.906 L89.806,29 L88.114,29 L88.114,15.968 L89.806,15.968 L89.806,21.35 C90.436,20.432 91.444,20.09 92.434,20.09 C94.504,20.09 95.53,21.584 95.53,23.51 L95.53,29 L93.838,29 L93.838,23.798 C93.838,22.592 93.334,21.62 91.822,21.62 C90.526,21.62 89.842,22.628 89.806,23.906 Z M101.938,27.758 C103.378,27.758 104.638,26.678 104.638,24.662 C104.638,22.664 103.378,21.584 101.938,21.584 C100.498,21.584 99.238,22.664 99.238,24.662 C99.238,26.678 100.498,27.758 101.938,27.758 Z M101.938,20.072 C104.53,20.072 106.366,22.034 106.366,24.662 C106.366,27.308 104.53,29.27 101.938,29.27 C99.346,29.27 97.51,27.308 97.51,24.662 C97.51,22.034 99.346,20.072 101.938,20.072 Z M110.794,17.606 L110.794,20.342 L112.666,20.342 L112.666,21.872 L110.794,21.872 L110.794,26.372 C110.794,27.164 111.118,27.56 112,27.56 C112.216,27.56 112.522,27.524 112.666,27.488 L112.666,28.928 C112.522,28.982 112.09,29.09 111.514,29.09 C110.038,29.09 109.102,28.19 109.102,26.624 L109.102,21.872 L107.446,21.872 L107.446,20.342 L107.914,20.342 C108.85,20.342 109.246,19.766 109.246,19.01 L109.246,17.606 L110.794,17.606 Z M116.59,29 L114.916,29 L114.916,15.968 L116.59,15.968 L116.59,21.566 C117.004,20.792 118.012,20.09 119.452,20.09 C122.08,20.09 123.43,22.106 123.43,24.626 C123.43,27.2 121.972,29.234 119.398,29.234 C118.12,29.234 117.13,28.676 116.59,27.74 L116.59,29 Z M121.702,24.626 C121.702,22.754 120.712,21.584 119.146,21.584 C117.652,21.584 116.572,22.754 116.572,24.626 C116.572,26.498 117.652,27.722 119.146,27.722 C120.694,27.722 121.702,26.498 121.702,24.626 Z M131.296,27.956 C130.828,28.856 129.748,29.27 128.74,29.27 C126.724,29.27 125.5,27.758 125.5,25.796 L125.5,20.342 L127.192,20.342 L127.192,25.544 C127.192,26.732 127.732,27.776 129.154,27.776 C130.522,27.776 131.206,26.876 131.206,25.562 L131.206,20.342 L132.898,20.342 L132.898,27.398 C132.898,28.082 132.952,28.694 132.988,29 L131.368,29 C131.332,28.802 131.296,28.316 131.296,27.956 Z M136.786,24.644 C136.786,26.426 137.704,27.74 139.324,27.74 C140.872,27.74 141.826,26.39 141.826,24.608 C141.826,22.826 140.89,21.602 139.342,21.602 C137.794,21.602 136.786,22.862 136.786,24.644 Z M141.844,27.83 L141.844,27.686 C141.43,28.514 140.512,29.234 139.162,29.234 C136.624,29.234 135.058,27.218 135.058,24.644 C135.058,22.196 136.714,20.108 139.162,20.108 C140.692,20.108 141.52,20.864 141.808,21.566 L141.808,15.968 L143.482,15.968 L143.482,27.398 C143.482,28.226 143.554,28.856 143.572,29 L141.934,29 C141.898,28.802 141.844,28.352 141.844,27.83 Z"/>
    <g transform="translate(-2 -2)">
      <path fill="url(#logo--white-a)" d="M27.8380505,25.1165414 C26.2315248,25.1165414 24.9291785,26.4188877 24.9291785,28.0254134 C24.9291785,29.6337439 26.2315248,30.9360902 27.8380505,30.9360902 L56.091128,30.9360902 C57.6976536,30.9360902 59,29.6337439 59,28.0272182 C59,26.4188877 57.6976536,25.1165414 56.091128,25.1165414 L27.8380505,25.1165414 Z"/>
      <path fill="url(#logo--white-b)" d="M28.3224697,17.8421053 C26.7159441,17.8421053 25.4135977,19.1444516 25.4135977,20.7509773 C25.4135977,22.3593078 26.7159441,23.6616541 28.3224697,23.6616541 L53.1846124,23.6616541 C54.7911381,23.6616541 56.0934844,22.3593078 56.0934844,20.7527821 C56.0934844,19.1444516 54.7911381,17.8421053 53.1846124,17.8421053 L28.3224697,17.8421053 Z"/>
      <path fill="#F6F6F6" d="M30.9036827,44.8383459 L31.0629303,44.8381959 C32.5802045,44.8381959 33.8101983,43.6082021 33.8101983,42.0909279 C33.8101983,40.572249 32.5802045,39.3422552 31.0629303,39.3422552 L30.9036827,39.3422552 L30.9036827,37.8873658 L33.9694459,37.8873658 C35.4867201,37.8873658 36.7167139,36.657372 36.7167139,35.1400978 C36.7167139,33.6214189 35.4867201,32.3914251 33.9694459,32.3914251 L31.2613046,32.3914251 L31.7215406,30.935733 L35.0996266,30.935733 C36.7061522,30.935733 38.0084986,29.6333866 38.0084986,28.026861 C38.0084986,26.418848 36.7061522,25.1165016 35.0996266,25.1165016 L33.8060168,25.1165016 L34.5174939,23.6612969 C36.221733,23.6612969 37.5240793,22.3589505 37.5240793,20.7524249 C37.5240793,19.3836375 36.5807163,18.2366716 35.3093537,17.9254036 C35.1433093,17.8672623 34.9648763,17.835428 34.7790368,17.8349105 L20.6378595,17.841543 C20.5697399,17.841575 20.5018065,17.8344284 20.4351848,17.8202217 C19.9114518,17.7085388 19.5774191,17.1934323 19.6891021,16.6696992 L20.2247412,14.1578397 C20.7209356,11.8309549 20.871863,9.44369636 20.6726692,7.07284762 L20.4019275,3.85042092 C20.3140358,2.80431523 19.4393099,2 18.3895184,2 C17.2808181,2 16.2882389,2.68726378 15.8981086,3.72505704 C14.0698677,8.58834471 12.2360375,12.5396437 10.3966006,15.5789474 C9.03125436,17.8349105 7.64797966,18.1165036 6.35977337,19.2969925 C5.71911741,19.884078 4.79303154,20.7415277 3.58151575,21.8693415 C2.52818705,22.8498971 1.9649177,24.2477273 2.04410357,25.6846408 L2.72273609,37.9990552 C2.78907624,39.2028691 3.51992826,40.2696903 4.61852611,40.7663308 L11.0869745,43.6905066 C12.7604848,44.4470463 14.5759781,44.8383459 16.4125479,44.8383459 L30.9036827,44.8383459 Z"/>
      <path fill="#2B2C30" fill-rule="nonzero" d="M31.7214276,30.9360902 L31.7215406,30.935733 L35.0996266,30.935733 C36.7061522,30.935733 38.0084986,29.6333866 38.0084986,28.026861 C38.0084986,26.4239763 36.7144459,25.1248117 35.1149879,25.1165414 L26.9481812,25.1165414 C26.5465498,25.1165414 26.2209632,24.7909548 26.2209632,24.3888721 C26.2209632,23.9872407 26.5465498,23.6616541 26.9481812,23.6616541 L34.5173192,23.6616541 L34.5174939,23.6612969 C36.221733,23.6612969 37.5240793,22.3589505 37.5240793,20.7524249 C37.5240793,19.3836375 36.5807163,18.2366716 35.3093537,17.9254036 C35.1433093,17.8672623 34.9648763,17.835428 34.7790368,17.8349105 L20.6378595,17.841543 C20.5697399,17.841575 20.5018065,17.8344284 20.4351848,17.8202217 C19.9114518,17.7085388 19.5774191,17.1934323 19.6891021,16.6696992 L20.2247412,14.1578397 C20.7209356,11.8309549 20.871863,9.44369636 20.6726692,7.07284762 L20.4019275,3.85042092 C20.3140358,2.80431523 19.4393099,2 18.3895184,2 C17.2808181,2 16.2882389,2.68726378 15.8981086,3.72505704 C14.0698677,8.58834471 12.2360375,12.5396437 10.3966006,15.5789474 C9.03125436,17.8349105 7.64797966,18.1165036 6.35977337,19.2969925 C5.71911741,19.884078 4.79303154,20.7415277 3.58151575,21.8693415 C2.52818705,22.8498971 1.9649177,24.2477273 2.04410357,25.6846408 L2.72273609,37.9990552 C2.78907624,39.2028691 3.51992826,40.2696903 4.61852611,40.7663308 L11.0869745,43.6905066 C12.7604848,44.4470463 14.5759781,44.8383459 16.4125479,44.8383459 L30.9036827,44.8383459 L31.0629303,44.8381959 C32.5802045,44.8381959 33.8101983,43.6082021 33.8101983,42.0909279 C33.8101983,40.572249 32.5802045,39.3422552 31.0629303,39.3422552 L30.9036827,39.3422552 L30.9036827,39.3419513 L26.9481812,39.3416233 C26.5467379,39.3416233 26.2212293,39.0163303 26.2199995,38.6144362 C26.2197334,38.2128049 26.5451042,37.8870027 26.9472173,37.887218 L32.7600341,37.887218 C32.7649819,37.887218 32.7699182,37.8872675 32.7748424,37.8873658 L33.9694459,37.8873658 C35.4867201,37.8873658 36.7167139,36.657372 36.7167139,35.1400978 C36.7167139,33.6214189 35.4867201,32.3914251 33.9694459,32.3914251 L31.2613046,32.3914251 L31.2614461,32.3909774 L26.9472173,32.3909774 C26.5455859,32.3909774 26.2199993,32.0653909 26.2199993,31.6633082 C26.2199993,31.2616768 26.5455859,30.9360902 26.9472173,30.9360902 L31.7214276,30.9360902 Z M37.1546982,32.3984209 C37.7881883,33.134111 38.1711499,34.0916793 38.1711499,35.1386931 C38.1711499,37.3715715 36.4316121,39.1967543 34.2346128,39.3335701 C34.8761998,40.0713095 35.2646343,41.0350545 35.2646343,42.0895232 C35.2646343,44.4114649 33.3834673,46.2926319 31.0629303,46.2926319 L30.9038327,46.2926319 L16.4125479,46.2927819 C14.3693639,46.2927819 12.3496277,45.8574611 10.4878475,45.0158107 L4.0193991,42.0916349 C2.42643222,41.3715062 1.3666968,39.8246155 1.27050358,38.0790853 L0.591877376,25.7646766 C0.488927945,23.8966891 1.22117704,22.0795074 2.59050632,20.8047832 C3.80456708,19.6746002 4.73314251,18.8148455 5.37714108,18.2246969 C5.78524389,17.8507189 6.13078118,17.5959829 6.78138249,17.1582652 C7.77663089,16.4886726 8.1316759,16.2015943 8.6122856,15.6038056 C8.79641427,15.374784 8.97556886,15.1178999 9.15230476,14.825879 C10.940276,11.8716121 12.7376856,7.99878746 14.5366825,3.21323986 C15.1400214,1.6083675 16.6749847,0.545564 18.3895184,0.545564 C20.1953658,0.545564 21.7000662,1.92914408 21.8512571,3.72865122 L22.1219987,6.95107792 C22.3331442,9.46417759 22.1731611,11.9946716 21.6471951,14.4611696 L21.2365602,16.3868264 L34.7830871,16.3804801 C34.8508642,16.3806689 34.9184095,16.3830744 34.985633,16.3876693 L53.1846124,16.3876693 C55.5944009,16.3876693 57.5479204,18.3411888 57.5479204,20.7509773 C57.5479204,21.8793594 57.1202374,22.9074557 56.418245,23.6820774 C58.6752498,23.8493581 60.454436,25.7335575 60.454436,28.0333081 C60.454436,30.4449014 58.5009165,32.3984209 56.091128,32.3984209 L37.1546982,32.3984209 Z M38.3589846,25.1244361 C39.0456863,25.8954317 39.4629346,26.9116759 39.4629346,28.0253736 C39.4629346,29.1478467 39.0397835,30.1709118 38.3444237,30.9439849 L56.091128,30.9439849 C57.6976536,30.9439849 59,29.6416386 59,28.0351129 C59,26.4267824 57.6976536,25.1244361 56.091128,25.1244361 L38.3589846,25.1244361 Z M37.8677256,17.8421053 C38.5626083,18.6194936 38.9785153,19.643341 38.9785153,20.7509376 C38.9785153,21.8698107 38.5582615,22.8896055 37.8671486,23.6616541 L53.1846124,23.6616541 C54.7911381,23.6616541 56.0934844,22.3593078 56.0934844,20.7527821 C56.0934844,19.1444516 54.7911381,17.8421053 53.1846124,17.8421053 L37.8677256,17.8421053 Z"/>
    </g>
  </g>
</svg>
