<?xml version="1.0" encoding="UTF-8"?>
<svg width="202px" height="53px" viewBox="0 0 202 53" version="1.1" xmlns="http://www.w3.org/2000/svg" xmlns:xlink="http://www.w3.org/1999/xlink">
    <!-- Generator: Sketch 47.1 (45422) - http://www.bohemiancoding.com/sketch -->
    <title>logo-horizontal-docs-light</title>
    <desc>Created with Sketch.</desc>
    <defs>
        <linearGradient x1="-7.63302183e-15%" y1="49.984%" x2="100%" y2="49.984%" id="linearGradient-1">
            <stop stop-color="#CB1C81" offset="0%"></stop>
            <stop stop-color="#9A2985" offset="64%"></stop>
            <stop stop-color="#712D86" offset="100%"></stop>
        </linearGradient>
        <linearGradient x1="8.69031323e-05%" y1="49.9859353%" x2="100%" y2="49.9859353%" id="linearGradient-2">
            <stop stop-color="#6A2B80" offset="0%"></stop>
            <stop stop-color="#532D86" offset="33%"></stop>
            <stop stop-color="#464E9B" offset="68%"></stop>
            <stop stop-color="#199BD1" offset="100%"></stop>
        </linearGradient>
        <linearGradient x1="0%" y1="50%" x2="100%" y2="50%" id="linearGradient-3">
            <stop stop-color="#1FAE8F" offset="0%"></stop>
            <stop stop-color="#26AF8B" offset="5%"></stop>
            <stop stop-color="#5CB46F" offset="44%"></stop>
            <stop stop-color="#88BF4C" offset="100%"></stop>
        </linearGradient>
        <linearGradient x1="0%" y1="50%" x2="100%" y2="50%" id="linearGradient-4">
            <stop stop-color="#00AABB" offset="0%"></stop>
            <stop stop-color="#00ADAB" offset="45%"></stop>
            <stop stop-color="#30B091" offset="100%"></stop>
        </linearGradient>
        <linearGradient x1="0%" y1="49.9552266%" x2="100.028482%" y2="49.9552266%" id="linearGradient-5">
            <stop stop-color="#37AC6B" offset="0%"></stop>
            <stop stop-color="#61B251" offset="47%"></stop>
            <stop stop-color="#8EC03E" offset="100%"></stop>
        </linearGradient>
        <linearGradient x1="0%" y1="50%" x2="100%" y2="50%" id="linearGradient-6">
            <stop stop-color="#84BF6C" offset="0%"></stop>
            <stop stop-color="#BBCF49" offset="49%"></stop>
            <stop stop-color="#EAE22A" offset="100%"></stop>
        </linearGradient>
        <linearGradient x1="0.0445035303%" y1="49.9865193%" x2="99.9994326%" y2="49.9865193%" id="linearGradient-7">
            <stop stop-color="#BEBC31" offset="0%"></stop>
            <stop stop-color="#DFD61F" offset="47%"></stop>
            <stop stop-color="#FCE900" offset="100%"></stop>
        </linearGradient>
        <linearGradient x1="0%" y1="49.9974341%" x2="100%" y2="49.9974341%" id="linearGradient-8">
            <stop stop-color="#DE0B80" offset="0%"></stop>
            <stop stop-color="#E95B4D" offset="50%"></stop>
            <stop stop-color="#FDCE07" offset="100%"></stop>
        </linearGradient>
    </defs>
    <g id="Symbols" stroke="none" stroke-width="1" fill="none" fill-rule="evenodd">
        <g id="logo-horizontal-docs-light">
            <g id="mark" transform="translate(0.000000, 5.000000)" fill-rule="nonzero">
                <g id="Layer_9" transform="translate(1.286908, 5.621622)" fill="url(#linearGradient-1)">
                    <path d="M0.265961003,5.77297297 L7.95309192,13.5567568 L12.7275209,8.8 L4.10952646,0.0432432432 C2.48569942,1.69894639 1.17711277,3.64102963 0.248802228,5.77297297" id="Shape"></path>
                </g>
                <g id="Layer_8" transform="translate(0.000000, 11.243243)" fill="url(#linearGradient-2)">
                    <path d="M3.38813179e-21,7.68864865 C-0.00245420143,10.3936347 0.572508467,13.0674837 1.68584958,15.5286486 L9.23571031,7.93945946 L1.54857939,0.155675676 C0.524764262,2.53284081 -0.00238043109,5.09710504 -2.07835797e-15,7.68864865" id="Shape"></path>
                </g>
                <g id="Layer_6" transform="translate(6.863510, 33.297297)" fill="url(#linearGradient-3)">
                    <path d="M0.120111421,0.35027027 L12.0626184,14.4562162 L12.2170474,14.4562162 L11.7151532,4.32432432 C9.05554318,4.3027027 6.52891365,1.96756757 4.24250696,0.934054054 L4.24250696,0.934054054 C3.6165648,0.693415427 2.93776748,0.627677001 2.2778273,0.743783784 C1.52284123,0.834594595 0.802172702,0.903783784 0.120111421,0.35027027 Z" id="Shape"></path>
                </g>
                <g id="Layer_7" transform="translate(1.286908, 19.027027)" fill="url(#linearGradient-4)">
                    <path d="M0.398941504,7.74486486 C2.30329526,11.9402618 5.65810757,15.2929502 9.83626741,17.1762162 L17.2917549,9.60432432 L7.95309192,0.147027027 L0.398941504,7.74486486 Z" id="Shape"></path>
                </g>
                <g id="Layer_5" transform="translate(10.724234, 28.540541)" fill="url(#linearGradient-5)">
                    <path d="M0.38178273,7.65405405 C5.16511347,9.81000862 10.6237189,9.85702662 15.4428969,7.78378378 L7.84584958,0.0778378378 L0.38178273,7.65405405 Z" id="Shape"></path>
                </g>
                <g id="Layer_4" transform="translate(18.445682, 19.027027)" fill="url(#linearGradient-6)">
                    <path d="M0.120111421,9.59567568 L7.72144847,17.2972973 C11.9228171,15.4707636 15.3203923,12.1641284 17.2788858,7.99567568 L9.43732591,0.0432432432 L0.120111421,9.59567568 Z" id="Shape"></path>
                </g>
                <g id="Layer_3" transform="translate(27.883008, 10.810811)" fill="url(#linearGradient-7)">
                    <path d="M0,8.24648649 L7.84155989,16.1989189 C9.02154753,13.6719245 9.63519786,10.9140417 9.6389415,8.12108108 C9.64555407,5.37111048 9.052451,2.65328902 7.9016156,0.16 L0,8.24648649 Z" id="Shape"></path>
                </g>
                <g id="Layer_2" transform="translate(10.724234, 0.000000)" fill="url(#linearGradient-8)">
                    <path d="M0.10724234,1.79027027 L17.1587744,19.0572973 L25.0518106,10.9708108 C22.9535092,6.41924445 19.1474275,2.89444935 14.4709553,1.17192829 C9.79448296,-0.550592779 4.63074065,-0.329722038 0.115821727,1.78594595 L0.115821727,1.78594595" id="Shape"></path>
                </g>
            </g>
            <path d="M166.880599,33.2770389 C166.057617,33.2770389 165.327564,33.0945255 164.690417,32.7294932 C164.053269,32.364461 163.550528,31.7820773 163.182177,30.9823248 C162.813826,30.1825723 162.629654,29.1588381 162.629654,27.9110915 C162.629654,25.979739 163.089256,24.5312464 164.008473,23.5655701 C164.927691,22.5998939 166.286586,22.117063 168.0852,22.117063 C168.602882,22.117063 169.186925,22.1668394 169.837346,22.2663936 L169.837346,17 L171.430206,17 L171.430206,33.0878867 L170.066319,33.0878867 L169.95681,31.9131524 L169.857256,31.9131524 C169.518772,32.3312803 169.094014,32.6631228 168.582968,32.90869 C168.071923,33.1542571 167.504473,33.2770389 166.880599,33.2770389 Z M167.248948,31.9031971 C167.753356,31.9031971 168.234528,31.7920298 168.692478,31.569692 C169.150427,31.3473542 169.532046,31.0138524 169.837346,30.5691768 L169.837346,23.6103693 C169.585142,23.5572737 169.299757,23.512475 168.981183,23.4759717 C168.66261,23.4394685 168.353996,23.4212172 168.055334,23.4212172 C166.774402,23.4212172 165.820355,23.7646742 165.193163,24.4515985 C164.565971,25.1385229 164.25238,26.2418993 164.25238,27.7617609 C164.25238,29.2683486 164.512876,30.3352223 165.033877,30.9624141 C165.554878,31.5896059 166.293227,31.9031971 167.248948,31.9031971 Z M178.678305,33.2770389 C177.23145,33.2770389 176.104844,32.8207554 175.298455,31.9081748 C174.492065,30.9955941 174.088877,29.5935594 174.088877,27.7020286 C174.088877,25.8104978 174.490406,24.4068039 175.293477,23.4909048 C176.096548,22.5750057 177.224813,22.117063 178.678305,22.117063 C180.138434,22.117063 181.270017,22.5716873 182.073088,23.4809494 C182.876159,24.3902116 183.277688,25.7939055 183.277688,27.6920732 C183.277688,29.5769671 182.87284,30.9790018 182.063132,31.8982194 C181.253424,32.817437 180.12516,33.2770389 178.678305,33.2770389 Z M178.678305,31.9828401 C179.647299,31.9828401 180.38399,31.6559752 180.888398,31.0022356 C181.392806,30.348496 181.645007,29.2550749 181.645007,27.7219394 C181.645007,26.1622561 181.392806,25.0555612 180.888398,24.4018217 C180.38399,23.7480821 179.647299,23.4212172 178.678305,23.4212172 C177.715947,23.4212172 176.980916,23.7464229 176.473189,24.396844 C175.965462,25.0472651 175.711603,26.139027 175.711603,27.6721625 C175.711603,29.2252088 175.963803,30.3319037 176.468211,30.9922802 C176.97262,31.6526568 177.70931,31.9828401 178.678305,31.9828401 Z M190.207215,33.2770389 C188.640895,33.2770389 187.452899,32.825733 186.643191,31.9231078 C185.833483,31.0204826 185.428635,29.6101518 185.428635,27.6920732 C185.428635,25.7739946 185.865008,24.3653231 186.737767,23.4660164 C187.610526,22.5667096 188.899734,22.117063 190.60543,22.117063 C191.408501,22.117063 192.14851,22.2099789 192.825479,22.3958135 L192.825479,23.7497446 C192.115325,23.5705469 191.435048,23.4809494 190.784627,23.4809494 C189.935097,23.4809494 189.239887,23.6170049 188.698976,23.8891198 C188.158064,24.1612348 187.753216,24.6025853 187.48442,25.2131848 C187.215623,25.8237842 187.081227,26.6367984 187.081227,27.6522517 C187.081227,28.680979 187.205668,29.5089261 187.454554,30.1361179 C187.703439,30.7633097 188.073444,31.217934 188.564578,31.5000044 C189.055712,31.7820747 189.679576,31.9231078 190.436189,31.9231078 C191.133069,31.9231078 191.929491,31.7737787 192.825479,31.4751159 L192.825479,32.829047 C191.982586,33.1277097 191.10984,33.2770389 190.207215,33.2770389 Z M197.385626,33.2770389 C196.29053,33.2770389 195.291684,33.1310282 194.389058,32.8390024 L194.389058,31.5547589 C195.377964,31.8534217 196.37681,32.0027508 197.385626,32.0027508 C199.164329,32.0027508 200.053667,31.3987974 200.053667,30.1908725 C200.053667,29.6997382 199.925908,29.3247561 199.670385,29.0659151 C199.414863,28.807074 198.988445,28.6112869 198.391119,28.4785479 L196.927679,28.1798866 C195.965321,27.9741412 195.268452,27.6323434 194.83705,27.154483 C194.405649,26.6766226 194.189951,26.0394849 194.189951,25.2430509 C194.189951,24.6258145 194.345917,24.0815928 194.657854,23.6103693 C194.96979,23.1391458 195.445984,22.7724598 196.08645,22.5103003 C196.726916,22.2481408 197.51836,22.117063 198.460807,22.117063 C199.330247,22.117063 200.179764,22.2232526 201.009383,22.435635 L201.009383,23.7298338 C200.571344,23.6103687 200.153223,23.5240897 199.755006,23.470994 C199.356789,23.4178984 198.938667,23.391351 198.500628,23.391351 C197.524997,23.391351 196.816513,23.5556131 196.375156,23.8841421 C195.933799,24.2126712 195.713123,24.6523625 195.713123,25.2032294 C195.713123,25.647905 195.835905,26.006295 196.081472,26.2784099 C196.327039,26.5505249 196.741843,26.7496304 197.325894,26.8757325 L198.789334,27.1743937 C199.771603,27.3801392 200.483405,27.7186186 200.924762,28.189842 C201.36612,28.6610655 201.586795,29.3015216 201.586795,30.1112295 C201.586795,31.106772 201.225087,31.8832835 200.501659,32.4407873 C199.778231,32.9982912 198.739564,33.2770389 197.385626,33.2770389 Z" id="docs.panoply" fill="#CFCFCF"></path>
            <g id="Layer_1" transform="translate(50.189415, 11.027027)" fill-rule="nonzero" fill="#FFFFFF">
                <path d="M6.6962117,22.9189189 C5.03766297,22.9460599 3.4720431,22.148845 2.50947075,20.787027 L2.50947075,28.6227027 L0.330306407,28.6227027 L0.330306407,11.7578378 C0.33162919,10.2119418 0.231316515,8.66765674 0.0300278552,7.13513514 L1.9389415,7.13513514 L2.4751532,9.47027027 C3.20869081,8.29405405 4.81732591,6.77621622 6.72623955,6.77621622 C11.3762674,6.77621622 12.851922,10.5556757 12.851922,14.9448649 C12.851922,19.2691892 10.9430084,22.9448649 6.69192201,22.9448649 M6.28869081,8.4972973 C4.44412256,8.4972973 3.00707521,10.2486486 2.4751532,11.7664865 L2.4751532,18.892973 C3.24729805,19.9351351 4.19103064,21.2194595 6.5589415,21.2194595 C8.92685237,21.2194595 10.5740947,19.3945946 10.5740947,14.8713514 C10.5740947,10.8886486 9.40300836,8.4972973 6.28440111,8.4972973" id="Shape"></path>
                <path d="M26.4159331,22.572973 C26.3816156,22.3351351 25.8797214,21.0854054 25.8454039,20.7481081 C24.8431431,22.1260551 23.2506924,22.9415509 21.5557103,22.9448649 C18.4757103,22.9448649 15.9791086,21.6259459 15.9791086,18.5210811 C15.9791086,15.4162162 17.6949861,13.1848649 24.1810028,13.1848649 L25.6566574,13.1848649 L25.6566574,12.0043243 C25.6566574,9.94594595 24.9531476,8.4972973 22.6109749,8.4972973 C20.7881736,8.52529844 18.997801,8.98761847 17.3861281,9.84648649 L16.6311421,7.95675676 C18.5423282,7.18821026 20.5791253,6.78636182 22.6367131,6.77189189 C25.7853482,6.77189189 27.8572702,8.35459459 27.8572702,11.7318919 L27.8572702,17.8378378 C27.8572702,19.052973 28.1318106,20.6745946 28.3291365,22.5686486 L26.4159331,22.572973 Z M25.7381616,14.8410811 L24.7000557,14.8410811 C19.8741504,14.8410811 18.3384401,15.9524324 18.3384401,18.4518919 C18.3384401,20.1816216 19.6253482,21.2194595 21.8216713,21.2194595 C23.5976045,21.2194595 25.0346518,20.4064865 25.7424513,19.1610811 L25.7381616,14.8410811 Z" id="Shape"></path>
                <path d="M42.9913092,22.572973 L42.9913092,12.972973 C42.9913092,10.6075676 42.588078,8.48432432 39.6110306,8.48432432 C37.5991643,8.48432432 36.1792758,10.3394595 35.6602228,11.7535135 L35.6602228,22.5643243 L33.4853482,22.5643243 L33.4853482,10.4172973 C33.4853482,9.12 33.2837326,8.35891892 33.1850696,7.14378378 L35.0768245,7.14378378 L35.5486908,9.44 C36.1492479,8.73081081 37.4876323,6.77189189 39.8984401,6.77189189 C43.9865181,6.77189189 45.1576045,9.30162162 45.1576045,12.8259459 L45.1576045,22.547027 L42.9913092,22.572973 Z" id="Shape"></path>
                <path d="M55.8518106,22.9189189 C50.764234,22.9189189 49.0869638,19.2345946 49.0869638,14.7459459 C49.0869638,10.4994595 50.764234,6.75027027 55.8518106,6.75027027 C60.9393872,6.75027027 62.5823398,10.2962162 62.5823398,14.7459459 C62.5823398,19.1956757 60.9393872,22.9189189 55.8518106,22.9189189 M55.8518106,8.47135135 C52.6345404,8.47135135 51.3647911,10.9664865 51.3647911,14.7459459 C51.3647911,18.4302703 52.4071866,21.1935135 55.8518106,21.1935135 C59.2964345,21.1935135 60.3045125,18.5254054 60.3045125,14.7459459 C60.3045125,10.9664865 59.2664067,8.47567568 55.8518106,8.47567568" id="Shape"></path>
                <path d="M73.5296379,22.9189189 C71.8704349,22.9437498 70.3045245,22.147203 69.3386072,20.787027 L69.3386072,28.6227027 L67.1680223,28.6227027 L67.1680223,11.7578378 C67.1684971,10.2119695 67.0681881,8.66774074 66.8677437,7.13513514 L68.7723677,7.13513514 L69.3085794,9.46162162 C70.042117,8.28540541 71.6507521,6.76756757 73.5596657,6.76756757 C78.2096936,6.76756757 79.6896379,10.547027 79.6896379,14.9362162 C79.6896379,19.2605405 77.7807242,22.9362162 73.5296379,22.9362162 M73.1264067,8.48864865 C71.2861281,8.48864865 69.8490808,10.24 69.3128691,11.7578378 L69.3128691,18.8843243 C70.0850139,19.9264865 71.0287465,21.2108108 73.4009471,21.2108108 C75.7731476,21.2108108 77.4161003,19.3859459 77.4161003,14.8627027 C77.4161003,10.88 76.2450139,8.48864865 73.1264067,8.48864865" id="Shape"></path>
                <rect id="Rectangle-path" x="83.6104178" y="0.397837838" width="2.17487465" height="22.1751351"></rect>
                <path d="M97.3331476,25.0335135 C96.4752089,27.4248649 95.424234,28.64 92.6788301,29.6216216 L91.97961,27.6756757 C93.8241783,27.1697297 94.5877437,26.3783784 94.9266295,25.4832432 L96.2693036,21.907027 L90.1350418,7.12216216 L92.4857939,7.12216216 L97.3760446,19.372973 L101.524178,7.12648649 L103.716212,7.12648649 L97.3331476,25.0335135 Z" id="Shape"></path>
            </g>
        </g>
    </g>
</svg>